<?xml version="1.0" encoding="UTF-8"?>
<svg id="Layer_1" xmlns="http://www.w3.org/2000/svg" version="1.1" viewBox="0 0 512 512">
  <!-- Generator: Adobe Illustrator 30.3.0, SVG Export Plug-In . SVG Version: 2.1.3 Build 182)  -->
  <defs>
    <style>
      .st0 {
        fill: #5454d2;
      }

      .st1 {
        font-family: NotoSans-Bold, 'Noto Sans';
        font-size: 110.04px;
        font-weight: 700;
      }
    </style>
  </defs>
  <path class="st0" d="M262.83,443.63c-97.58-1.19-179.25-78-184.93-176.88-2.87-50.04,13.92-98.2,47.27-135.61,33.35-37.41,79.28-59.6,129.32-62.47,62.31-3.56,122.16,23.96,160.06,73.66,9.19,12.06,6.87,29.29-5.18,38.48-12.06,9.19-29.28,6.88-38.48-5.18-26.82-35.18-69.17-54.66-113.25-52.14-35.4,2.03-67.88,17.72-91.47,44.19-23.59,26.46-35.47,60.53-33.44,95.93,4.19,73.07,67.08,129.1,140.12,124.91,46.83-2.69,87.89-29.08,109.84-70.61,7.09-13.41,23.7-18.53,37.1-11.45,13.41,7.09,18.53,23.7,11.45,37.1-31.01,58.68-89.05,95.98-155.24,99.78-4.41.25-8.8.35-13.16.3Z"/>
  <text class="st1" transform="translate(180.85 277.84) rotate(.7)"><tspan x="0" y="0">cult</tspan></text>
</svg>