<svg xmlns="http://www.w3.org/2000/svg" width="1221.00" height="668.00" viewBox="225.00 195.00 1221.00 668.00" fill="none">
  <defs>
    <linearGradient id="accent" x1="0" y1="0" x2="1" y2="1">
      <stop stop-color="#6B5CFF"/>
      <stop offset="1" stop-color="#5454D2"/>
    </linearGradient>
    <linearGradient id="aeWin" x1="0" y1="0" x2="0" y2="1">
      <stop stop-color="#26262A"/>
      <stop offset="1" stop-color="#141417"/>
    </linearGradient>
    
    
  </defs>

  
  <g>
    <rect x="240" y="210" width="1120" height="600" rx="26" fill="url(#aeWin)" stroke="#2B2B33" stroke-width="2"/>
    
    <rect x="240" y="210" width="1120" height="52" rx="26" fill="#1C1C21"/>
    <circle cx="278" cy="236" r="7" fill="#FF6B81" opacity="0.85"/>
    <circle cx="302" cy="236" r="7" fill="#FFD66B" opacity="0.85"/>
    <circle cx="326" cy="236" r="7" fill="#7CFF8A" opacity="0.8"/>
    <rect x="372" y="224" width="240" height="24" rx="12" fill="#0F0F13" opacity="0.75"/>
    <g><path d="M391.74 232L393.6 232L397.45 242L395.57 242L394.64 239.35L390.65 239.35L389.71 242L387.9 242ZM391.12 238.02L394.17 238.02L392.68 233.73L392.63 233.73Z" fill="#C9CBD7" opacity=".9"/><path d="M397.46 234.76L398.65 234.76L398.65 234.16Q398.65 233.47 398.82 233.05Q398.99 232.62 399.27 232.39Q399.55 232.16 399.91 232.08Q400.26 232 400.66 232Q401.43 232 401.78 232.1L401.78 233.35Q401.62 233.31 401.45 233.29Q401.27 233.26 401.03 233.26Q400.71 233.26 400.48 233.42Q400.25 233.57 400.25 234.02L400.25 234.76L401.61 234.76L401.61 235.95L400.25 235.95L400.25 242L398.65 242L398.65 235.95L397.46 235.95Z" fill="#C9CBD7" opacity=".9"/><path d="M401.86 234.76L403.06 234.76L403.06 232.59L404.66 232.59L404.66 234.76L406.1 234.76L406.1 235.95L404.66 235.95L404.66 239.82Q404.66 240.07 404.68 240.25Q404.7 240.43 404.78 240.56Q404.86 240.68 405.01 240.75Q405.16 240.81 405.43 240.81Q405.6 240.81 405.77 240.8Q405.93 240.8 406.1 240.75L406.1 241.99Q405.84 242.01 405.58 242.04Q405.33 242.07 405.07 242.07Q404.44 242.07 404.05 241.95Q403.67 241.83 403.45 241.6Q403.23 241.37 403.16 241.02Q403.08 240.67 403.06 240.22L403.06 235.95L401.86 235.95Z" fill="#C9CBD7" opacity=".9"/><path d="M412.22 237.74Q412.19 237.37 412.06 237.02Q411.93 236.67 411.7 236.41Q411.46 236.15 411.14 235.99Q410.81 235.83 410.4 235.83Q409.98 235.83 409.64 235.97Q409.29 236.12 409.05 236.38Q408.8 236.64 408.66 236.99Q408.51 237.34 408.5 237.74ZM408.5 238.79Q408.5 239.21 408.62 239.61Q408.73 240 408.97 240.29Q409.21 240.59 409.57 240.76Q409.94 240.94 410.44 240.94Q411.14 240.94 411.57 240.64Q412 240.33 412.21 239.73L413.72 239.73Q413.59 240.32 413.28 240.78Q412.98 241.24 412.54 241.56Q412.11 241.87 411.57 242.04Q411.03 242.2 410.44 242.2Q409.59 242.2 408.93 241.92Q408.27 241.64 407.82 241.13Q407.36 240.63 407.13 239.93Q406.9 239.23 406.9 238.39Q406.9 237.62 407.15 236.93Q407.39 236.23 407.85 235.71Q408.3 235.18 408.94 234.87Q409.59 234.57 410.4 234.57Q411.25 234.57 411.93 234.92Q412.61 235.28 413.06 235.87Q413.51 236.46 413.71 237.22Q413.91 237.98 413.82 238.79Z" fill="#C9CBD7" opacity=".9"/><path d="M415.03 234.76L416.53 234.76L416.53 236.16L416.56 236.16Q416.63 235.87 416.83 235.59Q417.04 235.31 417.32 235.08Q417.61 234.85 417.96 234.71Q418.31 234.57 418.67 234.57Q418.95 234.57 419.06 234.58Q419.16 234.59 419.28 234.61L419.28 236.15Q419.11 236.12 418.93 236.1Q418.76 236.08 418.59 236.08Q418.18 236.08 417.83 236.24Q417.47 236.4 417.2 236.72Q416.94 237.03 416.78 237.49Q416.63 237.95 416.63 238.56L416.63 242L415.03 242Z" fill="#C9CBD7" opacity=".9"/><path d="M424.08 232L431.27 232L431.27 233.52L425.83 233.52L425.83 236.13L430.87 236.13L430.87 237.56L425.83 237.56L425.83 240.49L431.37 240.49L431.37 242L424.08 242Z" fill="#C9CBD7" opacity=".9"/><path d="M431.96 234.76L433.15 234.76L433.15 234.16Q433.15 233.47 433.32 233.05Q433.49 232.62 433.77 232.39Q434.05 232.16 434.4 232.08Q434.76 232 435.15 232Q435.92 232 436.27 232.1L436.27 233.35Q436.12 233.31 435.94 233.29Q435.77 233.26 435.53 233.26Q435.21 233.26 434.98 233.42Q434.75 233.57 434.75 234.02L434.75 234.76L436.1 234.76L436.1 235.95L434.75 235.95L434.75 242L433.15 242L433.15 235.95L431.96 235.95Z" fill="#C9CBD7" opacity=".9"/><path d="M436.12 234.76L437.31 234.76L437.31 234.16Q437.31 233.47 437.48 233.05Q437.64 232.62 437.92 232.39Q438.2 232.16 438.56 232.08Q438.92 232 439.31 232Q440.08 232 440.43 232.1L440.43 233.35Q440.28 233.31 440.1 233.29Q439.93 233.26 439.69 233.26Q439.37 233.26 439.14 233.42Q438.9 233.57 438.9 234.02L438.9 234.76L440.26 234.76L440.26 235.95L438.9 235.95L438.9 242L437.31 242L437.31 235.95L436.12 235.95Z" fill="#C9CBD7" opacity=".9"/><path d="M446.21 237.74Q446.18 237.37 446.05 237.02Q445.92 236.67 445.69 236.41Q445.46 236.15 445.13 235.99Q444.8 235.83 444.39 235.83Q443.97 235.83 443.63 235.97Q443.29 236.12 443.04 236.38Q442.8 236.64 442.65 236.99Q442.5 237.34 442.49 237.74ZM442.49 238.79Q442.49 239.21 442.61 239.61Q442.73 240 442.96 240.29Q443.2 240.59 443.57 240.76Q443.93 240.94 444.43 240.94Q445.13 240.94 445.56 240.64Q445.99 240.33 446.2 239.73L447.71 239.73Q447.58 240.32 447.28 240.78Q446.97 241.24 446.53 241.56Q446.1 241.87 445.56 242.04Q445.02 242.2 444.43 242.2Q443.58 242.2 442.92 241.92Q442.26 241.64 441.81 241.13Q441.35 240.63 441.12 239.93Q440.89 239.23 440.89 238.39Q440.89 237.62 441.14 236.93Q441.38 236.23 441.84 235.71Q442.29 235.18 442.94 234.87Q443.58 234.57 444.39 234.57Q445.25 234.57 445.93 234.92Q446.6 235.28 447.05 235.87Q447.5 236.46 447.7 237.22Q447.91 237.98 447.81 238.79Z" fill="#C9CBD7" opacity=".9"/><path d="M453.91 237.18Q453.81 236.51 453.37 236.17Q452.93 235.83 452.26 235.83Q451.95 235.83 451.6 235.93Q451.25 236.04 450.96 236.32Q450.66 236.61 450.47 237.12Q450.27 237.63 450.27 238.46Q450.27 238.91 450.38 239.35Q450.48 239.8 450.71 240.15Q450.94 240.5 451.31 240.72Q451.67 240.94 452.19 240.94Q452.89 240.94 453.35 240.5Q453.8 240.07 453.91 239.28L455.51 239.28Q455.28 240.7 454.44 241.45Q453.59 242.2 452.19 242.2Q451.34 242.2 450.69 241.91Q450.03 241.62 449.59 241.13Q449.14 240.63 448.91 239.94Q448.68 239.26 448.68 238.46Q448.68 237.65 448.9 236.93Q449.12 236.22 449.57 235.69Q450.02 235.17 450.69 234.87Q451.35 234.57 452.25 234.57Q452.88 234.57 453.44 234.73Q454.01 234.89 454.45 235.21Q454.89 235.53 455.17 236.02Q455.45 236.51 455.51 237.18Z" fill="#C9CBD7" opacity=".9"/><path d="M456.08 234.76L457.29 234.76L457.29 232.59L458.88 232.59L458.88 234.76L460.32 234.76L460.32 235.95L458.88 235.95L458.88 239.82Q458.88 240.07 458.9 240.25Q458.92 240.43 459 240.56Q459.08 240.68 459.23 240.75Q459.39 240.81 459.65 240.81Q459.82 240.81 459.99 240.8Q460.16 240.8 460.32 240.75L460.32 241.99Q460.06 242.01 459.81 242.04Q459.55 242.07 459.29 242.07Q458.66 242.07 458.27 241.95Q457.89 241.83 457.67 241.6Q457.45 241.37 457.38 241.02Q457.3 240.67 457.29 240.22L457.29 235.95L456.08 235.95Z" fill="#C9CBD7" opacity=".9"/><path d="M462.68 239.68Q462.75 240.38 463.21 240.66Q463.67 240.94 464.31 240.94Q464.54 240.94 464.83 240.9Q465.11 240.87 465.36 240.77Q465.62 240.67 465.78 240.48Q465.94 240.29 465.92 239.98Q465.91 239.68 465.7 239.48Q465.49 239.28 465.16 239.17Q464.83 239.05 464.41 238.96Q463.99 238.88 463.56 238.78Q463.11 238.68 462.7 238.54Q462.28 238.4 461.96 238.16Q461.63 237.93 461.43 237.56Q461.23 237.18 461.23 236.64Q461.23 236.05 461.52 235.65Q461.81 235.25 462.25 235.01Q462.69 234.76 463.23 234.66Q463.77 234.57 464.26 234.57Q464.82 234.57 465.33 234.69Q465.84 234.8 466.25 235.07Q466.67 235.34 466.94 235.76Q467.21 236.19 467.28 236.79L465.62 236.79Q465.5 236.22 465.09 236.02Q464.68 235.83 464.15 235.83Q463.98 235.83 463.75 235.85Q463.52 235.88 463.31 235.96Q463.11 236.04 462.97 236.18Q462.83 236.33 462.83 236.57Q462.83 236.86 463.03 237.04Q463.24 237.23 463.57 237.35Q463.89 237.46 464.31 237.55Q464.73 237.63 465.18 237.73Q465.62 237.83 466.04 237.97Q466.46 238.11 466.79 238.35Q467.11 238.58 467.32 238.95Q467.52 239.31 467.52 239.84Q467.52 240.49 467.23 240.94Q466.93 241.38 466.46 241.66Q465.99 241.94 465.42 242.07Q464.85 242.2 464.29 242.2Q463.6 242.2 463.02 242.04Q462.44 241.89 462.01 241.57Q461.58 241.26 461.34 240.79Q461.09 240.32 461.08 239.68Z" fill="#C9CBD7" opacity=".9"/></g>
  </g>

  
  <g opacity="0.95">
    <rect x="270" y="286" width="320" height="494" rx="16" fill="#0F0F13" stroke="#2B2B33"/>
    
    <rect x="292" y="310" width="276" height="168" rx="14" fill="#1A1A20" stroke="#2B2B33"/>
    <rect x="316" y="336" width="76" height="44" rx="10" fill="#2A2A33"/>
    <rect x="410" y="336" width="136" height="12" rx="6" fill="#2A2A33"/>
    <rect x="410" y="360" width="110" height="12" rx="6" fill="#2A2A33" opacity="0.8"/>
    <rect x="316" y="398" width="230" height="10" rx="5" fill="#3C3C49" opacity="0.55"/>
    <rect x="316" y="418" width="160" height="10" rx="5" fill="#3C3C49" opacity="0.45"/>

    
    <g><path d="M293.06 510L294.81 510L294.81 518.49L299.9 518.49L299.9 520L293.06 520Z" fill="#C9CBD7" opacity=".9"/><path d="M306.94 518.39Q306.94 518.68 307.02 518.81Q307.09 518.94 307.32 518.94Q307.39 518.94 307.48 518.94Q307.58 518.94 307.71 518.91L307.71 520.01Q307.62 520.04 307.49 520.08Q307.36 520.11 307.22 520.14Q307.08 520.17 306.94 520.18Q306.8 520.2 306.7 520.2Q306.21 520.2 305.89 520Q305.57 519.8 305.47 519.31Q304.99 519.78 304.3 519.99Q303.61 520.2 302.96 520.2Q302.47 520.2 302.02 520.06Q301.58 519.93 301.23 519.67Q300.89 519.41 300.69 519.01Q300.48 518.61 300.48 518.08Q300.48 517.41 300.73 516.99Q300.97 516.57 301.37 516.33Q301.77 516.09 302.27 515.99Q302.77 515.88 303.27 515.83Q303.7 515.74 304.1 515.71Q304.49 515.67 304.79 515.59Q305.09 515.51 305.27 515.33Q305.44 515.16 305.44 514.81Q305.44 514.5 305.29 514.3Q305.15 514.11 304.93 514Q304.71 513.9 304.45 513.86Q304.18 513.83 303.94 513.83Q303.27 513.83 302.84 514.11Q302.4 514.39 302.35 514.97L300.75 514.97Q300.79 514.27 301.09 513.81Q301.38 513.35 301.83 513.07Q302.29 512.79 302.86 512.68Q303.44 512.57 304.04 512.57Q304.57 512.57 305.09 512.68Q305.61 512.79 306.02 513.04Q306.43 513.29 306.69 513.69Q306.94 514.09 306.94 514.67ZM305.34 516.37Q304.98 516.61 304.45 516.66Q303.91 516.71 303.38 516.81Q303.13 516.85 302.89 516.93Q302.65 517 302.47 517.14Q302.29 517.27 302.19 517.49Q302.08 517.7 302.08 518.01Q302.08 518.28 302.23 518.46Q302.39 518.64 302.61 518.75Q302.82 518.85 303.08 518.89Q303.34 518.94 303.55 518.94Q303.82 518.94 304.12 518.87Q304.43 518.8 304.71 518.63Q304.98 518.46 305.16 518.2Q305.34 517.94 305.34 517.56Z" fill="#C9CBD7" opacity=".9"/><path d="M307.86 512.76L309.61 512.76L311.5 518.17L311.53 518.17L313.36 512.76L315.03 512.76L312.22 520.39Q312.02 520.88 311.83 521.33Q311.64 521.78 311.37 522.12Q311.1 522.46 310.69 522.67Q310.28 522.87 309.65 522.87Q309.09 522.87 308.55 522.79L308.55 521.44Q308.74 521.47 308.93 521.51Q309.11 521.54 309.3 521.54Q309.58 521.54 309.77 521.47Q309.95 521.4 310.07 521.27Q310.19 521.13 310.27 520.95Q310.35 520.77 310.42 520.53L310.61 519.97Z" fill="#C9CBD7" opacity=".9"/><path d="M320.9 515.74Q320.87 515.37 320.74 515.02Q320.6 514.67 320.37 514.41Q320.14 514.15 319.81 513.99Q319.48 513.83 319.08 513.83Q318.66 513.83 318.31 513.97Q317.97 514.12 317.73 514.38Q317.48 514.64 317.33 514.99Q317.19 515.34 317.17 515.74ZM317.17 516.79Q317.17 517.21 317.29 517.61Q317.41 518 317.65 518.29Q317.89 518.59 318.25 518.76Q318.61 518.94 319.12 518.94Q319.82 518.94 320.25 518.64Q320.67 518.33 320.88 517.73L322.39 517.73Q322.27 518.32 321.96 518.78Q321.65 519.24 321.22 519.56Q320.78 519.87 320.25 520.04Q319.71 520.2 319.12 520.2Q318.26 520.2 317.61 519.92Q316.95 519.64 316.49 519.13Q316.04 518.63 315.81 517.93Q315.58 517.23 315.58 516.39Q315.58 515.62 315.82 514.92Q316.07 514.23 316.52 513.71Q316.98 513.18 317.62 512.87Q318.26 512.57 319.08 512.57Q319.93 512.57 320.61 512.92Q321.29 513.28 321.74 513.87Q322.18 514.46 322.39 515.22Q322.59 515.98 322.49 516.79Z" fill="#C9CBD7" opacity=".9"/><path d="M323.71 512.76L325.21 512.76L325.21 514.16L325.24 514.16Q325.31 513.87 325.51 513.59Q325.71 513.31 326 513.08Q326.29 512.85 326.64 512.71Q326.99 512.57 327.35 512.57Q327.63 512.57 327.74 512.58Q327.84 512.59 327.95 512.61L327.95 514.15Q327.78 514.12 327.61 514.1Q327.43 514.08 327.27 514.08Q326.86 514.08 326.5 514.24Q326.15 514.4 325.88 514.72Q325.61 515.03 325.46 515.49Q325.31 515.95 325.31 516.56L325.31 520L323.71 520Z" fill="#C9CBD7" opacity=".9"/><path d="M329.84 517.68Q329.91 518.38 330.37 518.66Q330.84 518.94 331.48 518.94Q331.7 518.94 331.99 518.9Q332.28 518.87 332.53 518.77Q332.78 518.67 332.94 518.48Q333.1 518.29 333.09 517.98Q333.08 517.68 332.87 517.48Q332.66 517.28 332.33 517.17Q332 517.05 331.58 516.96Q331.16 516.88 330.72 516.78Q330.28 516.68 329.86 516.54Q329.45 516.4 329.12 516.16Q328.79 515.93 328.6 515.55Q328.4 515.18 328.4 514.64Q328.4 514.05 328.69 513.65Q328.97 513.25 329.42 513.01Q329.86 512.76 330.4 512.66Q330.93 512.57 331.42 512.57Q331.98 512.57 332.5 512.68Q333.01 512.8 333.42 513.07Q333.83 513.34 334.11 513.76Q334.38 514.19 334.45 514.79L332.78 514.79Q332.67 514.22 332.26 514.02Q331.84 513.83 331.31 513.83Q331.14 513.83 330.91 513.85Q330.68 513.88 330.48 513.96Q330.28 514.04 330.14 514.18Q330 514.33 330 514.57Q330 514.86 330.2 515.04Q330.4 515.23 330.73 515.35Q331.06 515.46 331.48 515.55Q331.9 515.63 332.35 515.73Q332.78 515.83 333.2 515.97Q333.62 516.11 333.95 516.35Q334.28 516.58 334.48 516.95Q334.69 517.31 334.69 517.84Q334.69 518.49 334.39 518.94Q334.1 519.38 333.63 519.66Q333.16 519.94 332.59 520.07Q332.01 520.2 331.45 520.2Q330.77 520.2 330.19 520.04Q329.6 519.89 329.18 519.57Q328.75 519.26 328.51 518.79Q328.26 518.32 328.25 517.68Z" fill="#C9CBD7" opacity=".9"/></g>
    <g opacity="0.9">
      <rect x="292" y="536" width="276" height="12" rx="6" fill="#2A2A33"/>
      <rect x="292" y="556" width="240" height="12" rx="6" fill="#2A2A33" opacity="0.85"/>
      <rect x="292" y="576" width="262" height="12" rx="6" fill="#2A2A33" opacity="0.75"/>
      <rect x="292" y="604" width="252" height="12" rx="6" fill="#2A2A33" opacity="0.7"/>
      <rect x="292" y="626" width="276" height="12" rx="6" fill="#2A2A33" opacity="0.62"/>
      <rect x="292" y="648" width="220" height="12" rx="6" fill="#2A2A33" opacity="0.55"/>
      <rect x="292" y="670" width="246" height="12" rx="6" fill="#2A2A33" opacity="0.48"/>
      <rect x="292" y="692" width="276" height="12" rx="6" fill="#2A2A33" opacity="0.42"/>
      <rect x="292" y="716" width="210" height="10" rx="5" fill="#61D2B4" opacity="0.30"/>
      <rect x="292" y="734" width="170" height="10" rx="5" fill="#7B6CF5" opacity="0.26"/>
    </g>
  </g>

  
  <g opacity="0.95">
    <rect x="612" y="286" width="470" height="494" rx="18" fill="#101016" stroke="#2B2B33"/>
    <rect x="644" y="320" width="406" height="340" rx="16" fill="#1A1A20" stroke="#2B2B33"/>
    <g opacity="0.98">
      <!-- Selection frame: tight vertical padding vs 20px CJK (matches browser mock) -->
      <rect x="689" y="371" width="154" height="30" rx="7" fill="none" stroke="#7B6CF5" stroke-width="2.5" opacity="0.85"/>
      <rect x="685" y="367" width="10" height="10" rx="2" fill="#EDEBFF" stroke="#7B6CF5" stroke-width="2"/>
      <rect x="837" y="367" width="10" height="10" rx="2" fill="#EDEBFF" stroke="#7B6CF5" stroke-width="2"/>
      <rect x="685" y="395" width="10" height="10" rx="2" fill="#EDEBFF" stroke="#7B6CF5" stroke-width="2"/>
      <rect x="837" y="395" width="10" height="10" rx="2" fill="#EDEBFF" stroke="#7B6CF5" stroke-width="2"/>

      <g><path d="M717.38 383.16L722.42 383.16C723.44 383.16 724.06 383.2 724.82 383.28L724.82 380.9C724.1 380.98 723.44 381.02 722.4 381.02L709.68 381.02C708.52 381.02 707.98 381 707.26 380.9L707.26 383.28C708 383.2 708.64 383.16 709.66 383.16L715.06 383.16L715.06 390.96C715.06 391.42 714.98 391.46 714.04 391.46C713.32 391.46 712.5 391.38 711.52 391.22C711.88 392.02 712 392.52 712.08 393.46C712.84 393.52 713.42 393.54 714.36 393.54C715.72 393.54 716.28 393.46 716.72 393.16C717.22 392.82 717.38 392.38 717.38 391.22ZM722.86 376.32C722.14 376.4 721.38 376.44 720.46 376.44L711.52 376.44C710.5 376.44 709.86 376.4 709.12 376.32L709.12 378.6C709.92 378.52 710.74 378.48 711.5 378.48L720.44 378.48C721.32 378.48 722.16 378.52 722.86 378.6ZM710.74 384.38C710.06 386.86 708.62 389.26 706.9 390.8C707.8 391.28 708.24 391.64 708.82 392.3C710.74 390.16 711.98 387.98 712.92 385.14ZM719.2 385.34C720.92 387.78 722.06 389.74 723.28 392.38L725.3 391.02C723.94 388.32 723.36 387.4 721.12 384.32Z" fill="#B7B9C8" opacity="0.9"/><path d="M735 380.44C735.16 379.78 735.22 379.42 735.36 378.36L737.18 378.36C737.88 378.36 738.3 378.38 738.74 378.44L738.74 376.34C738.22 376.42 737.72 376.44 736.78 376.44L733.88 376.44C733 376.44 732.54 376.42 732 376.34L732 378.44C732.46 378.38 732.84 378.36 733.42 378.36C733.2 379.92 732.92 381.02 732.48 382.08C731.98 383.3 731.32 384.36 730.48 385.34C730.96 385.94 731.28 386.5 731.66 387.3C732.24 386.58 732.54 386.16 732.92 385.54C733.04 385.64 733.1 385.7 733.16 385.74C733.38 385.96 733.46 386.04 733.62 386.18C734.14 386.7 734.46 387.02 734.88 387.54C733.9 389.42 732.68 390.82 730.76 392.18C731.42 392.76 731.76 393.14 732.28 393.86C736 390.82 737.74 387.44 738.36 382.06C738.42 381.62 738.42 381.52 738.46 381.26L737.76 380.36C737.4 380.42 737 380.44 736.28 380.44ZM736.44 382.32C736.26 383.78 736.14 384.38 735.72 385.6C735.22 385.04 735.06 384.88 733.86 383.78C734.1 383.22 734.24 382.9 734.46 382.32ZM730.36 380.38C730.96 379.04 731.28 378.12 731.56 377.12C731.6 376.92 731.8 376.34 731.88 376.1L729.82 375.34C729.32 378.26 727.92 381.36 726.2 383.3C726.54 383.88 726.84 384.64 727.08 385.64C727.64 384.94 727.84 384.64 728.4 383.62C728.36 384.52 728.36 385.04 728.36 386L728.36 391.34C728.36 392.38 728.32 393 728.24 393.74L730.46 393.74C730.38 392.98 730.36 392.4 730.36 391.34ZM741.32 388.96C741.26 388.5 741.24 388.06 741.24 387.24L741.24 378.58C741.24 377.78 741.26 377.36 741.32 376.88L739.18 376.88C739.24 377.46 739.26 377.86 739.26 378.58L739.26 387.26C739.26 388 739.22 388.46 739.16 388.96ZM744.6 377.78C744.6 376.82 744.62 376.26 744.7 375.72L742.5 375.72C742.58 376.38 742.62 376.86 742.62 377.78L742.62 391.12C742.62 391.58 742.5 391.64 741.48 391.64C740.96 391.64 740 391.58 739.16 391.48C739.48 392.24 739.6 392.68 739.7 393.54C740.5 393.58 740.92 393.58 741.44 393.58C744.02 393.58 744.6 393.2 744.6 391.52Z" fill="#B7B9C8" opacity="0.9"/><path d="M757.12 379.54C756.4 379.54 755.84 379.52 755.28 379.46C755.32 379.82 755.34 380.48 755.34 381.1L755.34 385.54C755.34 386.22 755.32 386.74 755.26 387.1C755.84 387.04 756.24 387.02 756.94 387.02L758.62 387.02L758.62 391.32C758.62 391.72 758.54 391.76 757.92 391.76C757.64 391.76 756.94 391.7 756.3 391.62C756.62 392.36 756.72 392.82 756.78 393.64C757.3 393.66 757.94 393.68 758.38 393.68C760.16 393.68 760.68 393.3 760.68 392L760.68 387.02L762.5 387.02C763.2 387.02 763.58 387.04 764.1 387.1C764.04 386.68 764.02 386.12 764.02 385.42L764.02 381.04C764.02 380.4 764.04 379.92 764.1 379.48C763.56 379.52 763.18 379.54 762.32 379.54L760.2 379.54C760.38 379.14 760.58 378.64 760.76 378.14L762.66 378.14C763.56 378.14 764.44 378.18 764.96 378.24L764.96 376.08C764.3 376.14 763.64 376.18 762.62 376.18L754.26 376.18C753.32 376.18 752.72 376.16 752.14 376.08C752.22 376.92 752.24 377.6 752.24 378.68L752.24 380.92C752.24 383.94 751.92 386.94 751.42 388.76C751.08 389.9 750.68 390.84 750.06 391.84C750.78 392.38 751 392.64 751.72 393.7C752.82 391.86 753.48 389.78 753.9 386.98C754.12 385.42 754.3 382.54 754.3 380.48L754.3 378.14L758.56 378.14C758.44 378.62 758.3 379 758.04 379.54ZM757.32 381.28L762.02 381.28L762.02 382.42L757.32 382.42ZM757.32 384.04L762.02 384.04L762.02 385.22L757.32 385.22ZM747.2 377.08C748.58 378 749.1 378.46 750.26 379.82L751.76 378.18C750.72 377.08 750.12 376.58 748.74 375.64ZM746.56 382.16C748.08 383.1 748.46 383.42 749.82 384.76L751.14 383.04C750.08 382.02 749.28 381.4 747.96 380.6ZM748.94 385.98C748.24 388.92 747.46 390.96 746.66 392.04L748.48 393.66C748.76 393.02 748.96 392.56 749.06 392.28C749.78 390.48 750.18 389.2 750.66 387.02ZM765.34 391.86C764.6 389.96 764.42 389.62 763.2 387.48L761.5 388.2C762.38 389.66 762.86 390.74 763.66 392.9ZM755.54 387.44C755 389.58 754.52 390.5 753.3 391.8C754.02 392.24 754.22 392.42 754.82 393.2C756.14 391.66 756.76 390.42 757.38 388.04Z" fill="#B7B9C8" opacity="0.9"/><path d="M769.64 377.36C768.64 377.36 768.1 377.34 767.34 377.28C767.42 377.76 767.44 378.22 767.44 378.86L767.44 380.48C767.44 381.1 767.42 381.54 767.34 382L769.54 382L769.54 379.34L782.54 379.34L782.54 382L784.74 382C784.68 381.52 784.64 381.04 784.64 380.48L784.64 378.86C784.64 378.2 784.66 377.78 784.72 377.28C783.96 377.34 783.46 377.36 782.44 377.36L777.32 377.36C776.96 376.48 776.78 376.12 776.2 375.14L773.92 375.94C774.38 376.62 774.52 376.88 774.76 377.36ZM777.24 387.9L782.52 387.9C783.44 387.9 784.32 387.94 784.96 388.02L784.96 385.76C784.3 385.84 783.48 385.88 782.52 385.88L777.24 385.88L777.24 385.74C778.7 384.9 779.84 384.06 781.34 382.76C781.64 382.5 781.78 382.38 782.14 382.08L781.08 380.74C780.68 380.8 780.3 380.82 779.54 380.82L772.24 380.82C771.32 380.82 770.74 380.8 770.16 380.72L770.16 382.9C770.78 382.82 771.34 382.78 772.24 382.78L778.5 382.78C777.78 383.44 777.02 383.96 776.02 384.48L774.98 384.48C775.04 384.9 775.06 385.34 775.06 385.76L775.06 385.88L769.56 385.88C768.64 385.88 767.84 385.84 767.12 385.76L767.12 388.02C767.8 387.94 768.64 387.9 769.56 387.9L775.06 387.9L775.06 391.14C775.06 391.56 774.84 391.68 774.08 391.68C773.4 391.68 772.34 391.58 771.34 391.44C771.78 392.52 771.86 392.78 771.98 393.56C773 393.64 773.66 393.68 774.38 393.68C775.44 393.68 776 393.6 776.42 393.34C776.98 393.02 777.24 392.42 777.24 391.42Z" fill="#B7B9C8" opacity="0.9"/><path d="M803.3 378.98C804.1 378.98 804.62 379 805.12 379.08L805.12 376.94C804.62 377.02 804.2 377.04 803.3 377.04L799.14 377.04C799.42 376.28 799.6 375.86 799.66 375.7L797.48 375.3C797.26 376.42 796.6 377.86 795.88 378.9L795.88 376.94C795.36 377.02 794.9 377.04 794.16 377.04L791.44 377.04C791.72 376.46 791.76 376.38 792.08 375.72L789.88 375.28C789.66 376.1 789.32 376.82 788.84 377.6C788.26 378.5 787.72 379.12 786.66 380.02C787.44 380.72 787.52 380.82 788.08 381.64C789.12 380.6 789.56 380.08 790.34 378.96L791.34 378.96C791.62 379.56 791.98 380.52 792.2 381.22L794.2 380.6C793.8 379.7 793.62 379.32 793.44 378.96L794.38 378.96C794.94 378.96 795.44 378.98 795.8 379.02C795.52 379.38 795.38 379.54 794.98 379.96C795.74 380.52 796.02 380.76 796.6 381.36C797.36 380.46 797.66 380.02 798.24 378.98L799.54 378.98C799.98 379.78 800.18 380.26 800.44 381.02L802.42 380.44C802.12 379.74 801.96 379.46 801.66 378.98ZM802.42 385L802.9 385C803.9 385 804.56 385.04 805.2 385.1L805.2 382.9C804.64 382.98 803.94 383.02 802.88 383.02L802.42 383.02C802.42 382.26 802.44 381.72 802.52 381.24L800.16 381.24C800.24 381.74 800.28 382.3 800.28 383.02L794.88 383.02C794 383.02 793.02 382.98 792.56 382.92L792.56 385.1C793.34 385.02 794.02 385 794.88 385L800.28 385L800.28 391.1C800.28 391.54 800.12 391.62 799.32 391.62C798.72 391.62 797.94 391.56 797.14 391.44C797.44 392.2 797.56 392.76 797.62 393.6C798.64 393.68 798.84 393.68 799.42 393.68C800.56 393.68 801.12 393.6 801.56 393.38C802.16 393.1 802.42 392.52 802.42 391.48ZM793.58 386.86C794.76 388.12 795.34 388.9 796.48 390.78L798.24 389.48C796.84 387.52 796.58 387.18 795.26 385.78ZM791.6 384.12C792.06 383.46 792.16 383.3 792.72 382.4C792.92 382.06 793.02 381.92 793.2 381.64L791.12 380.78C790.42 382.66 788.78 384.64 786.66 386.14C787.26 387.04 787.46 387.4 787.78 388.22C788.78 387.34 788.86 387.26 789.56 386.46C789.52 387.18 789.5 387.92 789.5 388.42L789.5 391.62C789.5 392.54 789.46 393.2 789.38 393.88L791.7 393.88C791.6 392.9 791.6 392.9 791.6 391.62Z" fill="#B7B9C8" opacity="0.9"/><path d="M810.6 377.28C809.6 377.28 808.96 377.26 808.38 377.2C808.44 377.7 808.46 378.14 808.46 378.9L808.46 381.22C808.46 381.98 808.44 382.48 808.38 382.96C808.96 382.92 809.46 382.9 810.44 382.9L814.76 382.9L814.76 384.4L809.5 384.4C808.62 384.4 808.08 384.38 807.52 384.34C807.58 384.9 807.6 385.46 807.6 386.24L807.6 389.1C807.6 389.9 807.56 390.54 807.5 391.22L809.8 391.22L809.8 390.28L814.76 390.28L814.76 391.28C814.76 392.42 814.72 393.18 814.62 393.92L817.08 393.92C816.98 393.2 816.96 392.6 816.96 391.3L816.96 390.28L822.22 390.28L822.22 391.22L824.52 391.22C824.44 390.62 824.42 390.08 824.42 389.12L824.42 386.26C824.42 385.36 824.44 384.88 824.5 384.32C823.96 384.38 823.46 384.4 822.48 384.4L816.96 384.4L816.96 382.9L821.64 382.9C822.5 382.9 823.12 382.92 823.7 382.96C823.64 382.46 823.62 382.06 823.62 381.22L823.62 378.9C823.62 378.1 823.64 377.68 823.7 377.2C823.12 377.26 822.5 377.28 821.48 377.28L816.96 377.28C816.98 376.14 817 375.98 817.08 375.38L814.62 375.38C814.72 375.98 814.74 376.16 814.76 377.28ZM814.76 381.08L810.62 381.08L810.62 379.22L814.76 379.22ZM816.96 381.08L816.96 379.22L821.44 379.22L821.44 381.08ZM814.76 388.32L809.78 388.32L809.78 386.3L814.76 386.3ZM816.96 388.32L816.96 386.3L822.22 386.3L822.22 388.32Z" fill="#B7B9C8" opacity="0.9"/></g>
    </g>
    <rect x="684" y="416" width="300" height="18" rx="9" fill="#2A2A33" opacity="0.85"/>
    <rect x="684" y="446" width="260" height="18" rx="9" fill="#2A2A33" opacity="0.7"/>
    <!-- Cursor pointer (on top of gray lines) -->
    <g transform="translate(822 414) scale(0.62)" opacity="0.95">
      <path d="M0 0 L0 30 L8 22 L13 35 L18 33 L13 20 L24 20 Z" fill="#3B2F9B" opacity="0.55" transform="translate(1.5 1.5)"/>
      <path d="M0 0 L0 30 L8 22 L13 35 L18 33 L13 20 L24 20 Z" fill="#7B6CF5"/>
    </g>
    <rect x="684" y="496" width="320" height="10" rx="5" fill="#3C3C49" opacity="0.5"/>
    <rect x="684" y="516" width="280" height="10" rx="5" fill="#3C3C49" opacity="0.42"/>
    <rect x="684" y="536" width="300" height="10" rx="5" fill="#3C3C49" opacity="0.35"/>

    
    <rect x="847" y="642" width="2" height="134" fill="#7B6CF5" opacity="0.60"/>

    
    <g><path d="M644.11 670L652.2 670L652.2 671.52L649.03 671.52L649.03 680L647.28 680L647.28 671.52L644.11 671.52Z" fill="#C9CBD7" opacity="0.85"/><path d="M653.18 670L654.78 670L654.78 671.52L653.18 671.52ZM653.18 672.76L654.78 672.76L654.78 680L653.18 680Z" fill="#C9CBD7" opacity="0.85"/><path d="M656.52 672.76L658.03 672.76L658.03 673.77L658.07 673.77Q658.25 673.5 658.46 673.28Q658.67 673.06 658.93 672.9Q659.19 672.75 659.53 672.66Q659.86 672.57 660.3 672.57Q660.95 672.57 661.52 672.86Q662.09 673.15 662.33 673.77Q662.73 673.21 663.26 672.89Q663.8 672.57 664.59 672.57Q665.74 672.57 666.38 673.13Q667.02 673.69 667.02 675L667.02 680L665.42 680L665.42 675.77Q665.42 675.34 665.39 674.98Q665.36 674.62 665.23 674.37Q665.1 674.11 664.83 673.97Q664.57 673.83 664.1 673.83Q663.29 673.83 662.93 674.33Q662.56 674.83 662.56 675.76L662.56 680L660.97 680L660.97 675.35Q660.97 674.6 660.7 674.21Q660.42 673.83 659.69 673.83Q659.39 673.83 659.1 673.95Q658.81 674.08 658.6 674.32Q658.38 674.55 658.25 674.9Q658.11 675.25 658.11 675.7L658.11 680L656.52 680Z" fill="#C9CBD7" opacity="0.85"/><path d="M673.67 675.74Q673.64 675.37 673.51 675.02Q673.37 674.67 673.14 674.41Q672.91 674.15 672.58 673.99Q672.25 673.83 671.85 673.83Q671.43 673.83 671.08 673.97Q670.74 674.12 670.5 674.38Q670.25 674.64 670.1 674.99Q669.96 675.34 669.94 675.74ZM669.94 676.79Q669.94 677.21 670.06 677.61Q670.18 678 670.42 678.29Q670.66 678.59 671.02 678.76Q671.38 678.94 671.89 678.94Q672.59 678.94 673.02 678.64Q673.44 678.33 673.65 677.73L675.16 677.73Q675.04 678.32 674.73 678.78Q674.42 679.24 673.99 679.56Q673.55 679.87 673.02 680.04Q672.48 680.2 671.89 680.2Q671.03 680.2 670.38 679.92Q669.72 679.64 669.26 679.13Q668.81 678.63 668.58 677.93Q668.35 677.23 668.35 676.39Q668.35 675.62 668.59 674.93Q668.84 674.23 669.29 673.71Q669.75 673.18 670.39 672.87Q671.03 672.57 671.85 672.57Q672.7 672.57 673.38 672.92Q674.06 673.28 674.51 673.87Q674.95 674.46 675.16 675.22Q675.36 675.98 675.26 676.79Z" fill="#C9CBD7" opacity="0.85"/><path d="M676.52 670L678.12 670L678.12 680L676.52 680Z" fill="#C9CBD7" opacity="0.85"/><path d="M679.9 670L681.49 670L681.49 671.52L679.9 671.52ZM679.9 672.76L681.49 672.76L681.49 680L679.9 680Z" fill="#C9CBD7" opacity="0.85"/><path d="M683.23 672.76L684.74 672.76L684.74 673.83L684.77 673.85Q685.13 673.25 685.72 672.91Q686.31 672.57 687.02 672.57Q688.21 672.57 688.9 673.18Q689.58 673.8 689.58 675.03L689.58 680L687.99 680L687.99 675.45Q687.96 674.6 687.62 674.21Q687.29 673.83 686.57 673.83Q686.17 673.83 685.85 673.97Q685.52 674.12 685.3 674.38Q685.08 674.64 684.95 674.99Q684.82 675.34 684.82 675.73L684.82 680L683.23 680Z" fill="#C9CBD7" opacity="0.85"/><path d="M696.23 675.74Q696.21 675.37 696.07 675.02Q695.94 674.67 695.71 674.41Q695.48 674.15 695.15 673.99Q694.82 673.83 694.41 673.83Q693.99 673.83 693.65 673.97Q693.31 674.12 693.06 674.38Q692.82 674.64 692.67 674.99Q692.52 675.34 692.51 675.74ZM692.51 676.79Q692.51 677.21 692.63 677.61Q692.75 678 692.99 678.29Q693.22 678.59 693.59 678.76Q693.95 678.94 694.46 678.94Q695.16 678.94 695.58 678.64Q696.01 678.33 696.22 677.73L697.73 677.73Q697.61 678.32 697.3 678.78Q696.99 679.24 696.56 679.56Q696.12 679.87 695.58 680.04Q695.04 680.2 694.46 680.2Q693.6 680.2 692.94 679.92Q692.29 679.64 691.83 679.13Q691.38 678.63 691.15 677.93Q690.91 677.23 690.91 676.39Q690.91 675.62 691.16 674.93Q691.4 674.23 691.86 673.71Q692.31 673.18 692.96 672.87Q693.6 672.57 694.41 672.57Q695.27 672.57 695.95 672.92Q696.63 673.28 697.07 673.87Q697.52 674.46 697.73 675.22Q697.93 675.98 697.83 676.79Z" fill="#C9CBD7" opacity="0.85"/></g>
    <rect x="644" y="690" width="406" height="26" rx="13" fill="#0F0F13" stroke="#2B2B33"/>
    <g opacity="0.45">
      <rect x="670" y="700" width="1.5" height="6" fill="#B7B9C8"/>
      <rect x="710" y="700" width="1.5" height="6" fill="#B7B9C8"/>
      <rect x="750" y="700" width="1.5" height="6" fill="#B7B9C8"/>
      <rect x="790" y="700" width="1.5" height="6" fill="#B7B9C8"/>
      <rect x="830" y="700" width="1.5" height="6" fill="#B7B9C8"/>
      <rect x="870" y="700" width="1.5" height="6" fill="#B7B9C8"/>
      <rect x="910" y="700" width="1.5" height="6" fill="#B7B9C8"/>
      <rect x="950" y="700" width="1.5" height="6" fill="#B7B9C8"/>
      <rect x="990" y="700" width="1.5" height="6" fill="#B7B9C8"/>
      <rect x="1030" y="700" width="1.5" height="6" fill="#B7B9C8"/>
    </g>
    <rect x="674" y="732" width="260" height="14" rx="7" fill="#61D2B4" opacity="0.40"/>
    <rect x="674" y="754" width="330" height="14" rx="7" fill="#7B6CF5" opacity="0.32"/>
    <rect x="674" y="766" width="210" height="14" rx="7" fill="#B7B9C8" opacity="0.22"/>
  </g>

  
  
  <g>
    <rect x="1080" y="300" width="330" height="430" rx="18" fill="#1A1A1F" stroke="#343443" stroke-width="2"/>
    <rect x="1080" y="300" width="330" height="52" rx="18" fill="#15151A"/>

    <g><path d="M1113.81 327.18Q1113.7 326.75 1113.5 326.38Q1113.31 326.02 1113 325.75Q1112.69 325.49 1112.28 325.34Q1111.87 325.19 1111.32 325.19Q1110.52 325.19 1109.94 325.52Q1109.36 325.84 1109 326.38Q1108.63 326.92 1108.46 327.6Q1108.28 328.29 1108.28 329Q1108.28 329.72 1108.46 330.4Q1108.63 331.09 1109 331.63Q1109.36 332.17 1109.94 332.49Q1110.52 332.81 1111.32 332.81Q1111.91 332.81 1112.36 332.61Q1112.8 332.4 1113.13 332.05Q1113.45 331.69 1113.63 331.21Q1113.81 330.74 1113.87 330.19L1115.58 330.19Q1115.52 331.09 1115.19 331.83Q1114.86 332.57 1114.3 333.11Q1113.74 333.65 1112.99 333.94Q1112.23 334.24 1111.32 334.24Q1110.2 334.24 1109.31 333.83Q1108.42 333.41 1107.81 332.7Q1107.19 331.98 1106.86 331.03Q1106.53 330.08 1106.53 329Q1106.53 327.94 1106.86 326.99Q1107.19 326.03 1107.81 325.32Q1108.42 324.61 1109.31 324.19Q1110.2 323.77 1111.32 323.77Q1112.16 323.77 1112.9 324Q1113.64 324.23 1114.21 324.67Q1114.78 325.11 1115.13 325.74Q1115.48 326.37 1115.56 327.18Z" fill="#D0D1DD" opacity=".9"/><path d="M1123.3 334L1121.74 334L1121.74 332.99L1121.71 332.99Q1121.41 333.54 1120.83 333.87Q1120.25 334.2 1119.65 334.2Q1118.22 334.2 1117.59 333.49Q1116.95 332.78 1116.95 331.35L1116.95 326.76L1118.54 326.76L1118.54 331.2Q1118.54 332.15 1118.91 332.54Q1119.27 332.94 1119.93 332.94Q1120.43 332.94 1120.77 332.78Q1121.11 332.63 1121.32 332.37Q1121.53 332.11 1121.62 331.75Q1121.71 331.38 1121.71 330.96L1121.71 326.76L1123.3 326.76Z" fill="#D0D1DD" opacity=".9"/><path d="M1125.03 324L1126.62 324L1126.62 334L1125.03 334Z" fill="#D0D1DD" opacity=".9"/><path d="M1127.63 326.76L1128.83 326.76L1128.83 324.59L1130.43 324.59L1130.43 326.76L1131.87 326.76L1131.87 327.95L1130.43 327.95L1130.43 331.82Q1130.43 332.07 1130.45 332.25Q1130.47 332.43 1130.55 332.56Q1130.63 332.68 1130.78 332.75Q1130.93 332.81 1131.2 332.81Q1131.37 332.81 1131.54 332.8Q1131.7 332.8 1131.87 332.75L1131.87 333.99Q1131.61 334.01 1131.35 334.04Q1131.1 334.07 1130.84 334.07Q1130.21 334.07 1129.82 333.95Q1129.44 333.83 1129.22 333.6Q1129 333.37 1128.93 333.02Q1128.85 332.67 1128.83 332.22L1128.83 327.95L1127.63 327.95Z" fill="#D0D1DD" opacity=".9"/><path d="M1143.88 327.18Q1143.77 326.75 1143.58 326.38Q1143.38 326.02 1143.07 325.75Q1142.76 325.49 1142.35 325.34Q1141.94 325.19 1141.39 325.19Q1140.59 325.19 1140.01 325.52Q1139.43 325.84 1139.07 326.38Q1138.7 326.92 1138.53 327.6Q1138.35 328.29 1138.35 329Q1138.35 329.72 1138.53 330.4Q1138.7 331.09 1139.07 331.63Q1139.43 332.17 1140.01 332.49Q1140.59 332.81 1141.39 332.81Q1141.98 332.81 1142.43 332.61Q1142.88 332.4 1143.2 332.05Q1143.52 331.69 1143.7 331.21Q1143.88 330.74 1143.94 330.19L1145.65 330.19Q1145.59 331.09 1145.26 331.83Q1144.93 332.57 1144.37 333.11Q1143.81 333.65 1143.06 333.94Q1142.3 334.24 1141.39 334.24Q1140.27 334.24 1139.38 333.83Q1138.49 333.41 1137.88 332.7Q1137.26 331.98 1136.93 331.03Q1136.6 330.08 1136.6 329Q1136.6 327.94 1136.93 326.99Q1137.26 326.03 1137.88 325.32Q1138.49 324.61 1139.38 324.19Q1140.27 323.77 1141.39 323.77Q1142.23 323.77 1142.97 324Q1143.72 324.23 1144.28 324.67Q1144.85 325.11 1145.2 325.74Q1145.55 326.37 1145.63 327.18Z" fill="#D0D1DD" opacity=".9"/><path d="M1150.34 334.2Q1149.47 334.2 1148.79 333.91Q1148.11 333.62 1147.64 333.12Q1147.17 332.61 1146.93 331.91Q1146.68 331.21 1146.68 330.37Q1146.68 329.55 1146.93 328.85Q1147.17 328.15 1147.64 327.64Q1148.11 327.14 1148.79 326.85Q1149.47 326.57 1150.34 326.57Q1151.21 326.57 1151.89 326.85Q1152.56 327.14 1153.03 327.64Q1153.5 328.15 1153.75 328.85Q1153.99 329.55 1153.99 330.37Q1153.99 331.21 1153.75 331.91Q1153.5 332.61 1153.03 333.12Q1152.56 333.62 1151.89 333.91Q1151.21 334.2 1150.34 334.2ZM1150.34 332.94Q1150.87 332.94 1151.26 332.71Q1151.65 332.49 1151.91 332.12Q1152.16 331.76 1152.28 331.31Q1152.4 330.85 1152.4 330.37Q1152.4 329.91 1152.28 329.45Q1152.16 328.99 1151.91 328.63Q1151.65 328.27 1151.26 328.05Q1150.87 327.83 1150.34 327.83Q1149.81 327.83 1149.41 328.05Q1149.02 328.27 1148.77 328.63Q1148.52 328.99 1148.4 329.45Q1148.28 329.91 1148.28 330.37Q1148.28 330.85 1148.4 331.31Q1148.52 331.76 1148.77 332.12Q1149.02 332.49 1149.41 332.71Q1149.81 332.94 1150.34 332.94Z" fill="#D0D1DD" opacity=".9"/><path d="M1155.32 326.76L1156.83 326.76L1156.83 327.83L1156.86 327.85Q1157.23 327.25 1157.81 326.91Q1158.4 326.57 1159.12 326.57Q1160.31 326.57 1160.99 327.18Q1161.68 327.8 1161.68 329.03L1161.68 334L1160.08 334L1160.08 329.45Q1160.05 328.6 1159.72 328.21Q1159.38 327.83 1158.67 327.83Q1158.26 327.83 1157.94 327.97Q1157.62 328.12 1157.39 328.38Q1157.17 328.64 1157.04 328.99Q1156.92 329.34 1156.92 329.73L1156.92 334L1155.32 334Z" fill="#D0D1DD" opacity=".9"/><path d="M1163.36 326.76L1164.87 326.76L1164.87 327.83L1164.9 327.85Q1165.26 327.25 1165.85 326.91Q1166.44 326.57 1167.15 326.57Q1168.34 326.57 1169.03 327.18Q1169.71 327.8 1169.71 329.03L1169.71 334L1168.12 334L1168.12 329.45Q1168.09 328.6 1167.75 328.21Q1167.42 327.83 1166.7 327.83Q1166.3 327.83 1165.98 327.97Q1165.65 328.12 1165.43 328.38Q1165.21 328.64 1165.08 328.99Q1164.95 329.34 1164.95 329.73L1164.95 334L1163.36 334Z" fill="#D0D1DD" opacity=".9"/><path d="M1176.36 329.74Q1176.34 329.37 1176.2 329.02Q1176.07 328.67 1175.84 328.41Q1175.61 328.15 1175.28 327.99Q1174.95 327.83 1174.54 327.83Q1174.12 327.83 1173.78 327.97Q1173.44 328.12 1173.19 328.38Q1172.95 328.64 1172.8 328.99Q1172.65 329.34 1172.64 329.74ZM1172.64 330.79Q1172.64 331.21 1172.76 331.61Q1172.88 332 1173.12 332.29Q1173.35 332.59 1173.72 332.76Q1174.08 332.94 1174.59 332.94Q1175.29 332.94 1175.71 332.64Q1176.14 332.33 1176.35 331.73L1177.86 331.73Q1177.74 332.32 1177.43 332.78Q1177.12 333.24 1176.69 333.56Q1176.25 333.87 1175.71 334.04Q1175.17 334.2 1174.59 334.2Q1173.73 334.2 1173.07 333.92Q1172.42 333.64 1171.96 333.13Q1171.51 332.63 1171.28 331.93Q1171.04 331.23 1171.04 330.39Q1171.04 329.62 1171.29 328.93Q1171.53 328.23 1171.99 327.71Q1172.44 327.18 1173.09 326.87Q1173.73 326.57 1174.54 326.57Q1175.4 326.57 1176.08 326.92Q1176.76 327.28 1177.2 327.87Q1177.65 328.46 1177.86 329.22Q1178.06 329.98 1177.96 330.79Z" fill="#D0D1DD" opacity=".9"/><path d="M1184.06 329.18Q1183.97 328.51 1183.53 328.17Q1183.08 327.83 1182.41 327.83Q1182.1 327.83 1181.75 327.93Q1181.4 328.04 1181.11 328.32Q1180.82 328.61 1180.62 329.12Q1180.42 329.63 1180.42 330.46Q1180.42 330.91 1180.53 331.35Q1180.63 331.8 1180.87 332.15Q1181.1 332.5 1181.46 332.72Q1181.82 332.94 1182.34 332.94Q1183.04 332.94 1183.5 332.5Q1183.95 332.07 1184.06 331.28L1185.66 331.28Q1185.44 332.7 1184.59 333.45Q1183.74 334.2 1182.34 334.2Q1181.49 334.2 1180.84 333.91Q1180.19 333.62 1179.74 333.13Q1179.29 332.63 1179.06 331.94Q1178.83 331.26 1178.83 330.46Q1178.83 329.65 1179.05 328.93Q1179.28 328.22 1179.72 327.69Q1180.17 327.17 1180.84 326.87Q1181.5 326.57 1182.4 326.57Q1183.03 326.57 1183.6 326.73Q1184.16 326.89 1184.6 327.21Q1185.04 327.53 1185.32 328.02Q1185.6 328.51 1185.66 329.18Z" fill="#D0D1DD" opacity=".9"/><path d="M1186.23 326.76L1187.44 326.76L1187.44 324.59L1189.03 324.59L1189.03 326.76L1190.48 326.76L1190.48 327.95L1189.03 327.95L1189.03 331.82Q1189.03 332.07 1189.06 332.25Q1189.08 332.43 1189.15 332.56Q1189.23 332.68 1189.38 332.75Q1189.54 332.81 1189.8 332.81Q1189.97 332.81 1190.14 332.8Q1190.31 332.8 1190.48 332.75L1190.48 333.99Q1190.21 334.01 1189.96 334.04Q1189.71 334.07 1189.44 334.07Q1188.81 334.07 1188.43 333.95Q1188.04 333.83 1187.82 333.6Q1187.61 333.37 1187.53 333.02Q1187.45 332.67 1187.44 332.22L1187.44 327.95L1186.23 327.95Z" fill="#D0D1DD" opacity=".9"/><path d="M1194.94 334.2Q1194.07 334.2 1193.4 333.91Q1192.72 333.62 1192.25 333.12Q1191.78 332.61 1191.53 331.91Q1191.29 331.21 1191.29 330.37Q1191.29 329.55 1191.53 328.85Q1191.78 328.15 1192.25 327.64Q1192.72 327.14 1193.4 326.85Q1194.07 326.57 1194.94 326.57Q1195.81 326.57 1196.49 326.85Q1197.17 327.14 1197.64 327.64Q1198.11 328.15 1198.35 328.85Q1198.6 329.55 1198.6 330.37Q1198.6 331.21 1198.35 331.91Q1198.11 332.61 1197.64 333.12Q1197.17 333.62 1196.49 333.91Q1195.81 334.2 1194.94 334.2ZM1194.94 332.94Q1195.47 332.94 1195.87 332.71Q1196.26 332.49 1196.51 332.12Q1196.76 331.76 1196.88 331.31Q1197 330.85 1197 330.37Q1197 329.91 1196.88 329.45Q1196.76 328.99 1196.51 328.63Q1196.26 328.27 1195.87 328.05Q1195.47 327.83 1194.94 327.83Q1194.41 327.83 1194.02 328.05Q1193.63 328.27 1193.37 328.63Q1193.12 328.99 1193 329.45Q1192.88 329.91 1192.88 330.37Q1192.88 330.85 1193 331.31Q1193.12 331.76 1193.37 332.12Q1193.63 332.49 1194.02 332.71Q1194.41 332.94 1194.94 332.94Z" fill="#D0D1DD" opacity=".9"/><path d="M1199.93 326.76L1201.42 326.76L1201.42 328.16L1201.45 328.16Q1201.52 327.87 1201.73 327.59Q1201.93 327.31 1202.22 327.08Q1202.5 326.85 1202.85 326.71Q1203.2 326.57 1203.57 326.57Q1203.85 326.57 1203.95 326.58Q1204.06 326.59 1204.17 326.61L1204.17 328.15Q1204 328.12 1203.83 328.1Q1203.65 328.08 1203.48 328.08Q1203.08 328.08 1202.72 328.24Q1202.36 328.4 1202.1 328.72Q1201.83 329.03 1201.68 329.49Q1201.52 329.95 1201.52 330.56L1201.52 334L1199.93 334Z" fill="#D0D1DD" opacity=".9"/><path d="M1210.61 336.67Q1210.19 336 1209.82 335.29Q1209.45 334.57 1209.17 333.78Q1208.9 332.99 1208.75 332.11Q1208.59 331.23 1208.59 330.22Q1208.59 328.53 1209.12 326.89Q1209.64 325.25 1210.61 323.77L1211.91 323.77Q1211.07 325.28 1210.63 326.87Q1210.19 328.46 1210.19 330.22Q1210.19 331.98 1210.61 333.58Q1211.03 335.18 1211.91 336.67Z" fill="#D0D1DD" opacity=".9"/><path d="M1215.54 324L1217.4 324L1221.25 334L1219.37 334L1218.43 331.35L1214.44 331.35L1213.51 334L1211.7 334ZM1214.92 330.02L1217.97 330.02L1216.47 325.73L1216.43 325.73Z" fill="#D0D1DD" opacity=".9"/><path d="M1222.2 324L1229.4 324L1229.4 325.52L1223.95 325.52L1223.95 328.13L1228.99 328.13L1228.99 329.56L1223.95 329.56L1223.95 332.49L1229.49 332.49L1229.49 334L1222.2 334Z" fill="#D0D1DD" opacity=".9"/><path d="M1240.61 328.23Q1241.57 329.63 1243.27 330.25L1243.27 330.58Q1241.57 331.2 1240.61 332.6L1240.12 332.6Q1240.45 331.62 1241.22 330.75L1236.45 330.75Q1237.22 331.62 1237.56 332.6L1237.07 332.6Q1236.11 331.2 1234.41 330.58L1234.41 330.25Q1236.11 329.63 1237.07 328.23L1237.56 328.23Q1237.22 329.21 1236.45 330.08L1241.22 330.08Q1240.45 329.21 1240.12 328.23Z" fill="#D0D1DD" opacity=".9"/><path d="M1253.95 327.18Q1253.84 326.75 1253.64 326.38Q1253.45 326.02 1253.14 325.75Q1252.83 325.49 1252.42 325.34Q1252.01 325.19 1251.46 325.19Q1250.66 325.19 1250.08 325.52Q1249.5 325.84 1249.14 326.38Q1248.77 326.92 1248.6 327.6Q1248.42 328.29 1248.42 329Q1248.42 329.72 1248.6 330.4Q1248.77 331.09 1249.14 331.63Q1249.5 332.17 1250.08 332.49Q1250.66 332.81 1251.46 332.81Q1252.05 332.81 1252.5 332.61Q1252.94 332.4 1253.27 332.05Q1253.59 331.69 1253.77 331.21Q1253.95 330.74 1254.01 330.19L1255.72 330.19Q1255.66 331.09 1255.33 331.83Q1255 332.57 1254.44 333.11Q1253.88 333.65 1253.13 333.94Q1252.37 334.24 1251.46 334.24Q1250.34 334.24 1249.45 333.83Q1248.56 333.41 1247.95 332.7Q1247.33 331.98 1247 331.03Q1246.67 330.08 1246.67 329Q1246.67 327.94 1247 326.99Q1247.33 326.03 1247.95 325.32Q1248.56 324.61 1249.45 324.19Q1250.34 323.77 1251.46 323.77Q1252.3 323.77 1253.04 324Q1253.78 324.23 1254.35 324.67Q1254.92 325.11 1255.27 325.74Q1255.62 326.37 1255.7 327.18Z" fill="#D0D1DD" opacity=".9"/><path d="M1257.09 326.76L1258.59 326.76L1258.59 328.16L1258.61 328.16Q1258.68 327.87 1258.89 327.59Q1259.09 327.31 1259.38 327.08Q1259.66 326.85 1260.01 326.71Q1260.36 326.57 1260.73 326.57Q1261.01 326.57 1261.11 326.58Q1261.22 326.59 1261.33 326.61L1261.33 328.15Q1261.16 328.12 1260.99 328.1Q1260.81 328.08 1260.64 328.08Q1260.24 328.08 1259.88 328.24Q1259.52 328.4 1259.26 328.72Q1258.99 329.03 1258.84 329.49Q1258.68 329.95 1258.68 330.56L1258.68 334L1257.09 334Z" fill="#D0D1DD" opacity=".9"/><path d="M1265.08 334.2Q1264.21 334.2 1263.54 333.91Q1262.86 333.62 1262.39 333.12Q1261.92 332.61 1261.67 331.91Q1261.43 331.21 1261.43 330.37Q1261.43 329.55 1261.67 328.85Q1261.92 328.15 1262.39 327.64Q1262.86 327.14 1263.54 326.85Q1264.21 326.57 1265.08 326.57Q1265.95 326.57 1266.63 326.85Q1267.31 327.14 1267.78 327.64Q1268.25 328.15 1268.49 328.85Q1268.74 329.55 1268.74 330.37Q1268.74 331.21 1268.49 331.91Q1268.25 332.61 1267.78 333.12Q1267.31 333.62 1266.63 333.91Q1265.95 334.2 1265.08 334.2ZM1265.08 332.94Q1265.61 332.94 1266.01 332.71Q1266.4 332.49 1266.65 332.12Q1266.9 331.76 1267.02 331.31Q1267.14 330.85 1267.14 330.37Q1267.14 329.91 1267.02 329.45Q1266.9 328.99 1266.65 328.63Q1266.4 328.27 1266.01 328.05Q1265.61 327.83 1265.08 327.83Q1264.55 327.83 1264.16 328.05Q1263.77 328.27 1263.51 328.63Q1263.26 328.99 1263.14 329.45Q1263.02 329.91 1263.02 330.37Q1263.02 330.85 1263.14 331.31Q1263.26 331.76 1263.51 332.12Q1263.77 332.49 1264.16 332.71Q1264.55 332.94 1265.08 332.94Z" fill="#D0D1DD" opacity=".9"/><path d="M1269.41 326.76L1271.1 326.76L1272.52 332.17L1272.54 332.17L1273.9 326.76L1275.51 326.76L1276.81 332.17L1276.84 332.17L1278.31 326.76L1279.94 326.76L1277.67 334L1276.03 334L1274.69 328.62L1274.66 328.62L1273.33 334L1271.65 334Z" fill="#D0D1DD" opacity=".9"/><path d="M1287.78 334L1286.26 334L1286.26 333.02L1286.24 333.02Q1285.91 333.65 1285.3 333.92Q1284.68 334.2 1284 334.2Q1283.14 334.2 1282.51 333.9Q1281.87 333.59 1281.45 333.08Q1281.03 332.56 1280.82 331.85Q1280.61 331.14 1280.61 330.33Q1280.61 329.35 1280.87 328.64Q1281.14 327.92 1281.58 327.46Q1282.02 327 1282.59 326.78Q1283.16 326.57 1283.74 326.57Q1284.08 326.57 1284.43 326.63Q1284.78 326.69 1285.1 326.83Q1285.42 326.97 1285.7 327.19Q1285.97 327.41 1286.15 327.7L1286.18 327.7L1286.18 324L1287.78 324ZM1282.2 330.46Q1282.2 330.92 1282.32 331.37Q1282.44 331.82 1282.69 332.17Q1282.93 332.52 1283.31 332.73Q1283.69 332.94 1284.21 332.94Q1284.74 332.94 1285.12 332.71Q1285.51 332.49 1285.75 332.12Q1286 331.76 1286.12 331.31Q1286.24 330.85 1286.24 330.37Q1286.24 329.17 1285.7 328.5Q1285.16 327.83 1284.23 327.83Q1283.67 327.83 1283.29 328.06Q1282.9 328.29 1282.66 328.66Q1282.41 329.03 1282.31 329.5Q1282.2 329.97 1282.2 330.46Z" fill="#D0D1DD" opacity=".9"/><path d="M1289.55 324L1291.15 324L1291.15 325.52L1289.55 325.52ZM1289.55 326.76L1291.15 326.76L1291.15 334L1289.55 334Z" fill="#D0D1DD" opacity=".9"/><path d="M1292.89 326.76L1294.4 326.76L1294.4 327.83L1294.43 327.85Q1294.79 327.25 1295.38 326.91Q1295.97 326.57 1296.68 326.57Q1297.87 326.57 1298.56 327.18Q1299.24 327.8 1299.24 329.03L1299.24 334L1297.65 334L1297.65 329.45Q1297.62 328.6 1297.28 328.21Q1296.95 327.83 1296.23 327.83Q1295.83 327.83 1295.5 327.97Q1295.18 328.12 1294.96 328.38Q1294.73 328.64 1294.61 328.99Q1294.48 329.34 1294.48 329.73L1294.48 334L1292.89 334Z" fill="#D0D1DD" opacity=".9"/><path d="M1301.27 323.77Q1301.69 324.44 1302.06 325.16Q1302.42 325.88 1302.69 326.67Q1302.97 327.46 1303.13 328.34Q1303.29 329.23 1303.29 330.23Q1303.29 331.93 1302.76 333.57Q1302.24 335.2 1301.27 336.67L1299.97 336.67Q1300.81 335.18 1301.25 333.59Q1301.69 332 1301.69 330.23Q1301.69 328.47 1301.27 326.87Q1300.85 325.28 1299.97 323.77Z" fill="#D0D1DD" opacity=".9"/></g>

    
    <g opacity="0.85">
      <rect x="1370" y="322" width="16" height="2.6" rx="1.3" fill="#BFC2D3"/>
      <rect x="1370" y="330" width="16" height="2.6" rx="1.3" fill="#BFC2D3"/>
      <rect x="1370" y="338" width="16" height="2.6" rx="1.3" fill="#BFC2D3"/>
    </g>

    
    <g><path d="M1114.18 374.89L1116.46 374.89Q1116.35 373.96 1115.95 373.24Q1115.54 372.52 1114.92 372.03Q1114.3 371.55 1113.51 371.29Q1112.72 371.04 1111.84 371.04Q1110.61 371.04 1109.62 371.47Q1108.64 371.91 1107.96 372.67Q1107.29 373.44 1106.93 374.46Q1106.57 375.49 1106.57 376.69Q1106.57 377.86 1106.93 378.87Q1107.29 379.89 1107.96 380.64Q1108.64 381.39 1109.62 381.81Q1110.61 382.24 1111.84 382.24Q1112.83 382.24 1113.65 381.94Q1114.47 381.64 1115.09 381.07Q1115.71 380.5 1116.08 379.69Q1116.46 378.88 1116.55 377.88L1114.27 377.88Q1114.13 378.96 1113.52 379.62Q1112.92 380.28 1111.84 380.28Q1111.04 380.28 1110.48 379.97Q1109.93 379.66 1109.59 379.15Q1109.24 378.64 1109.08 378Q1108.93 377.37 1108.93 376.69Q1108.93 375.99 1109.08 375.33Q1109.24 374.67 1109.59 374.15Q1109.93 373.63 1110.48 373.32Q1111.04 373.02 1111.84 373.02Q1112.27 373.02 1112.67 373.16Q1113.07 373.3 1113.38 373.56Q1113.7 373.81 1113.91 374.15Q1114.12 374.49 1114.18 374.89Z" fill="#E6E7F0"/><path d="M1119.82 378.13Q1119.82 377.67 1119.91 377.22Q1120 376.77 1120.21 376.42Q1120.43 376.08 1120.79 375.86Q1121.15 375.64 1121.69 375.64Q1122.23 375.64 1122.6 375.86Q1122.96 376.08 1123.18 376.42Q1123.4 376.77 1123.49 377.22Q1123.58 377.67 1123.58 378.13Q1123.58 378.6 1123.49 379.04Q1123.4 379.48 1123.18 379.83Q1122.96 380.19 1122.6 380.4Q1122.23 380.61 1121.69 380.61Q1121.15 380.61 1120.79 380.4Q1120.43 380.19 1120.21 379.83Q1120 379.48 1119.91 379.04Q1119.82 378.6 1119.82 378.13ZM1117.69 378.13Q1117.69 379.06 1117.97 379.81Q1118.26 380.56 1118.78 381.09Q1119.31 381.63 1120.04 381.91Q1120.78 382.2 1121.69 382.2Q1122.61 382.2 1123.35 381.91Q1124.09 381.63 1124.62 381.09Q1125.14 380.56 1125.43 379.81Q1125.71 379.06 1125.71 378.13Q1125.71 377.2 1125.43 376.44Q1125.14 375.69 1124.62 375.15Q1124.09 374.62 1123.35 374.33Q1122.61 374.04 1121.69 374.04Q1120.78 374.04 1120.04 374.33Q1119.31 374.62 1118.78 375.15Q1118.26 375.69 1117.97 376.44Q1117.69 377.2 1117.69 378.13Z" fill="#E6E7F0"/><path d="M1127.15 374.25L1127.15 382L1129.28 382L1129.28 377.5Q1129.28 376.93 1129.45 376.58Q1129.61 376.23 1129.84 376.04Q1130.08 375.85 1130.32 375.78Q1130.57 375.72 1130.72 375.72Q1131.23 375.72 1131.49 375.89Q1131.75 376.06 1131.87 376.35Q1131.98 376.63 1131.99 376.97Q1132.01 377.31 1132.01 377.65L1132.01 382L1134.14 382L1134.14 377.68Q1134.14 377.32 1134.19 376.97Q1134.24 376.62 1134.4 376.34Q1134.56 376.06 1134.84 375.89Q1135.12 375.72 1135.57 375.72Q1136.01 375.72 1136.28 375.87Q1136.54 376.02 1136.68 376.27Q1136.81 376.53 1136.84 376.87Q1136.87 377.22 1136.87 377.61L1136.87 382L1139 382L1139 376.81Q1139 376.06 1138.79 375.53Q1138.58 375 1138.21 374.67Q1137.83 374.34 1137.31 374.19Q1136.78 374.04 1136.17 374.04Q1135.36 374.04 1134.76 374.43Q1134.17 374.82 1133.83 375.33Q1133.51 374.61 1132.9 374.32Q1132.3 374.04 1131.56 374.04Q1130.8 374.04 1130.2 374.37Q1129.61 374.7 1129.19 375.3L1129.16 375.3L1129.16 374.25Z" fill="#E6E7F0"/><path d="M1144.59 380.61Q1144.08 380.61 1143.72 380.4Q1143.36 380.19 1143.15 379.85Q1142.93 379.51 1142.83 379.06Q1142.73 378.61 1142.73 378.15Q1142.73 377.67 1142.82 377.22Q1142.92 376.77 1143.13 376.42Q1143.35 376.08 1143.7 375.86Q1144.05 375.64 1144.58 375.64Q1145.09 375.64 1145.44 375.86Q1145.79 376.08 1146.02 376.43Q1146.24 376.78 1146.34 377.23Q1146.44 377.68 1146.44 378.15Q1146.44 378.61 1146.35 379.06Q1146.26 379.51 1146.04 379.85Q1145.82 380.19 1145.47 380.4Q1145.12 380.61 1144.59 380.61ZM1140.68 374.25L1140.68 384.72L1142.81 384.72L1142.81 381.04L1142.84 381.04Q1143.23 381.61 1143.84 381.9Q1144.45 382.2 1145.17 382.2Q1146.02 382.2 1146.66 381.87Q1147.29 381.54 1147.72 380.98Q1148.15 380.43 1148.36 379.71Q1148.57 378.99 1148.57 378.21Q1148.57 377.38 1148.36 376.62Q1148.15 375.87 1147.71 375.3Q1147.28 374.73 1146.62 374.38Q1145.96 374.04 1145.04 374.04Q1144.32 374.04 1143.72 374.32Q1143.13 374.61 1142.73 375.24L1142.71 375.24L1142.71 374.25Z" fill="#E6E7F0"/><path d="M1151.73 378.13Q1151.73 377.67 1151.82 377.22Q1151.92 376.77 1152.13 376.42Q1152.35 376.08 1152.71 375.86Q1153.07 375.64 1153.61 375.64Q1154.15 375.64 1154.52 375.86Q1154.88 376.08 1155.1 376.42Q1155.32 376.77 1155.41 377.22Q1155.5 377.67 1155.5 378.13Q1155.5 378.6 1155.41 379.04Q1155.32 379.48 1155.1 379.83Q1154.88 380.19 1154.52 380.4Q1154.15 380.61 1153.61 380.61Q1153.07 380.61 1152.71 380.4Q1152.35 380.19 1152.13 379.83Q1151.92 379.48 1151.82 379.04Q1151.73 378.6 1151.73 378.13ZM1149.6 378.13Q1149.6 379.06 1149.89 379.81Q1150.18 380.56 1150.7 381.09Q1151.22 381.63 1151.96 381.91Q1152.7 382.2 1153.61 382.2Q1154.52 382.2 1155.27 381.91Q1156.01 381.63 1156.53 381.09Q1157.06 380.56 1157.34 379.81Q1157.63 379.06 1157.63 378.13Q1157.63 377.2 1157.34 376.44Q1157.06 375.69 1156.53 375.15Q1156.01 374.62 1155.27 374.33Q1154.52 374.04 1153.61 374.04Q1152.7 374.04 1151.96 374.33Q1151.22 374.62 1150.7 375.15Q1150.18 375.69 1149.89 376.44Q1149.6 377.2 1149.6 378.13Z" fill="#E6E7F0"/><path d="M1160.66 379.48L1158.63 379.48Q1158.66 380.26 1158.99 380.78Q1159.31 381.3 1159.81 381.61Q1160.31 381.93 1160.96 382.06Q1161.6 382.2 1162.28 382.2Q1162.94 382.2 1163.58 382.07Q1164.21 381.94 1164.71 381.63Q1165.21 381.31 1165.51 380.79Q1165.82 380.28 1165.82 379.51Q1165.82 378.97 1165.61 378.6Q1165.4 378.24 1165.05 377.99Q1164.71 377.74 1164.27 377.59Q1163.82 377.44 1163.36 377.34Q1162.91 377.23 1162.47 377.14Q1162.04 377.05 1161.7 376.94Q1161.36 376.83 1161.15 376.65Q1160.94 376.47 1160.94 376.18Q1160.94 375.94 1161.06 375.8Q1161.18 375.66 1161.36 375.58Q1161.53 375.51 1161.74 375.48Q1161.95 375.46 1162.13 375.46Q1162.7 375.46 1163.12 375.68Q1163.54 375.9 1163.58 376.51L1165.61 376.51Q1165.55 375.79 1165.24 375.32Q1164.93 374.85 1164.47 374.56Q1164 374.28 1163.41 374.16Q1162.82 374.04 1162.19 374.04Q1161.56 374.04 1160.96 374.15Q1160.36 374.26 1159.88 374.54Q1159.4 374.82 1159.11 375.3Q1158.81 375.78 1158.81 376.53Q1158.81 377.04 1159.02 377.39Q1159.23 377.74 1159.58 377.97Q1159.92 378.21 1160.37 378.35Q1160.81 378.49 1161.27 378.6Q1162.41 378.84 1163.05 379.08Q1163.69 379.32 1163.69 379.8Q1163.69 380.08 1163.55 380.27Q1163.42 380.46 1163.22 380.57Q1163.01 380.68 1162.77 380.73Q1162.52 380.79 1162.29 380.79Q1161.98 380.79 1161.69 380.71Q1161.39 380.64 1161.17 380.48Q1160.94 380.32 1160.8 380.07Q1160.66 379.83 1160.66 379.48Z" fill="#E6E7F0"/><path d="M1169.25 373.05L1169.25 371.29L1167.12 371.29L1167.12 373.05ZM1167.12 374.25L1167.12 382L1169.25 382L1169.25 374.25Z" fill="#E6E7F0"/><path d="M1173.63 374.25L1173.63 371.92L1171.5 371.92L1171.5 374.25L1170.21 374.25L1170.21 375.67L1171.5 375.67L1171.5 380.25Q1171.5 380.83 1171.7 381.19Q1171.89 381.55 1172.23 381.75Q1172.57 381.94 1173.01 382.01Q1173.45 382.08 1173.95 382.08Q1174.26 382.08 1174.59 382.06Q1174.92 382.05 1175.19 382L1175.19 380.35Q1175.04 380.38 1174.88 380.4Q1174.71 380.41 1174.53 380.41Q1173.99 380.41 1173.81 380.23Q1173.63 380.05 1173.63 379.51L1173.63 375.67L1175.19 375.67L1175.19 374.25Z" fill="#E6E7F0"/><path d="M1178.4 373.05L1178.4 371.29L1176.27 371.29L1176.27 373.05ZM1176.27 374.25L1176.27 382L1178.4 382L1178.4 374.25Z" fill="#E6E7F0"/><path d="M1181.97 378.13Q1181.97 377.67 1182.06 377.22Q1182.15 376.77 1182.37 376.42Q1182.59 376.08 1182.95 375.86Q1183.31 375.64 1183.85 375.64Q1184.39 375.64 1184.76 375.86Q1185.12 376.08 1185.34 376.42Q1185.56 376.77 1185.65 377.22Q1185.74 377.67 1185.74 378.13Q1185.74 378.6 1185.65 379.04Q1185.56 379.48 1185.34 379.83Q1185.12 380.19 1184.76 380.4Q1184.39 380.61 1183.85 380.61Q1183.31 380.61 1182.95 380.4Q1182.59 380.19 1182.37 379.83Q1182.15 379.48 1182.06 379.04Q1181.97 378.6 1181.97 378.13ZM1179.84 378.13Q1179.84 379.06 1180.13 379.81Q1180.41 380.56 1180.94 381.09Q1181.46 381.63 1182.2 381.91Q1182.93 382.2 1183.85 382.2Q1184.76 382.2 1185.51 381.91Q1186.25 381.63 1186.77 381.09Q1187.3 380.56 1187.58 379.81Q1187.87 379.06 1187.87 378.13Q1187.87 377.2 1187.58 376.44Q1187.3 375.69 1186.77 375.15Q1186.25 374.62 1185.51 374.33Q1184.76 374.04 1183.85 374.04Q1182.93 374.04 1182.2 374.33Q1181.46 374.62 1180.94 375.15Q1180.41 375.69 1180.13 376.44Q1179.84 377.2 1179.84 378.13Z" fill="#E6E7F0"/><path d="M1189.25 374.25L1189.25 382L1191.38 382L1191.38 377.94Q1191.38 376.75 1191.77 376.23Q1192.16 375.72 1193.03 375.72Q1193.79 375.72 1194.09 376.19Q1194.39 376.66 1194.39 377.62L1194.39 382L1196.52 382L1196.52 377.23Q1196.52 376.51 1196.4 375.92Q1196.27 375.33 1195.95 374.91Q1195.64 374.5 1195.09 374.27Q1194.54 374.04 1193.69 374.04Q1193.01 374.04 1192.37 374.34Q1191.72 374.65 1191.32 375.33L1191.27 375.33L1191.27 374.25Z" fill="#E6E7F0"/></g>
    <g><path d="M1242.64 378.45L1240.36 378.45Q1240.35 379.44 1240.72 380.16Q1241.1 380.88 1241.73 381.34Q1242.37 381.81 1243.2 382.02Q1244.04 382.24 1244.92 382.24Q1246.02 382.24 1246.85 381.99Q1247.68 381.73 1248.24 381.27Q1248.81 380.82 1249.09 380.19Q1249.38 379.56 1249.38 378.82Q1249.38 377.92 1248.99 377.34Q1248.61 376.77 1248.09 376.42Q1247.56 376.08 1247.03 375.92Q1246.49 375.76 1246.2 375.7Q1245.19 375.45 1244.57 375.28Q1243.95 375.12 1243.59 374.95Q1243.24 374.79 1243.12 374.59Q1243 374.4 1243 374.08Q1243 373.74 1243.15 373.51Q1243.3 373.29 1243.53 373.14Q1243.77 372.99 1244.05 372.93Q1244.34 372.87 1244.62 372.87Q1245.06 372.87 1245.42 372.94Q1245.79 373.02 1246.08 373.2Q1246.36 373.38 1246.53 373.69Q1246.71 374.01 1246.73 374.49L1249.02 374.49Q1249.02 373.56 1248.66 372.9Q1248.31 372.25 1247.71 371.83Q1247.11 371.41 1246.34 371.22Q1245.57 371.04 1244.72 371.04Q1244.01 371.04 1243.29 371.23Q1242.57 371.43 1241.99 371.83Q1241.43 372.24 1241.07 372.84Q1240.72 373.45 1240.72 374.28Q1240.72 375.01 1241 375.53Q1241.28 376.05 1241.72 376.39Q1242.18 376.74 1242.74 376.95Q1243.32 377.17 1243.92 377.32Q1244.5 377.49 1245.07 377.62Q1245.64 377.76 1246.09 377.94Q1246.54 378.12 1246.82 378.39Q1247.1 378.66 1247.1 379.09Q1247.1 379.5 1246.89 379.76Q1246.68 380.02 1246.36 380.17Q1246.05 380.32 1245.69 380.37Q1245.33 380.43 1245.01 380.43Q1244.55 380.43 1244.11 380.31Q1243.68 380.2 1243.35 379.97Q1243.03 379.74 1242.84 379.36Q1242.64 378.99 1242.64 378.45Z" fill="#B7B9C8" opacity="0.9"/><path d="M1255.76 377.29L1252.3 377.29Q1252.31 377.07 1252.4 376.78Q1252.48 376.5 1252.68 376.24Q1252.89 375.99 1253.22 375.81Q1253.56 375.64 1254.07 375.64Q1254.85 375.64 1255.23 376.06Q1255.62 376.48 1255.76 377.29ZM1252.3 378.64L1257.9 378.64Q1257.96 377.74 1257.74 376.92Q1257.53 376.09 1257.06 375.45Q1256.59 374.8 1255.85 374.42Q1255.12 374.04 1254.13 374.04Q1253.24 374.04 1252.52 374.35Q1251.79 374.67 1251.26 375.21Q1250.74 375.76 1250.46 376.51Q1250.17 377.26 1250.17 378.13Q1250.17 379.03 1250.45 379.78Q1250.72 380.53 1251.23 381.07Q1251.74 381.61 1252.48 381.9Q1253.21 382.2 1254.13 382.2Q1255.45 382.2 1256.38 381.6Q1257.31 381 1257.76 379.6L1255.89 379.6Q1255.78 379.96 1255.31 380.28Q1254.85 380.61 1254.21 380.61Q1253.3 380.61 1252.82 380.14Q1252.34 379.68 1252.3 378.64Z" fill="#B7B9C8" opacity="0.9"/><path d="M1261.85 374.25L1261.85 371.92L1259.72 371.92L1259.72 374.25L1258.43 374.25L1258.43 375.67L1259.72 375.67L1259.72 380.25Q1259.72 380.83 1259.92 381.19Q1260.11 381.55 1260.45 381.75Q1260.79 381.94 1261.23 382.01Q1261.67 382.08 1262.17 382.08Q1262.48 382.08 1262.81 382.06Q1263.14 382.05 1263.41 382L1263.41 380.35Q1263.26 380.38 1263.1 380.4Q1262.93 380.41 1262.75 380.41Q1262.21 380.41 1262.03 380.23Q1261.85 380.05 1261.85 379.51L1261.85 375.67L1263.41 375.67L1263.41 374.25Z" fill="#B7B9C8" opacity="0.9"/><path d="M1267.13 374.25L1267.13 371.92L1265 371.92L1265 374.25L1263.71 374.25L1263.71 375.67L1265 375.67L1265 380.25Q1265 380.83 1265.2 381.19Q1265.39 381.55 1265.73 381.75Q1266.07 381.94 1266.51 382.01Q1266.95 382.08 1267.45 382.08Q1267.76 382.08 1268.09 382.06Q1268.42 382.05 1268.69 382L1268.69 380.35Q1268.54 380.38 1268.38 380.4Q1268.21 380.41 1268.03 380.41Q1267.49 380.41 1267.31 380.23Q1267.13 380.05 1267.13 379.51L1267.13 375.67L1268.69 375.67L1268.69 374.25Z" fill="#B7B9C8" opacity="0.9"/><path d="M1271.9 373.05L1271.9 371.29L1269.77 371.29L1269.77 373.05ZM1269.77 374.25L1269.77 382L1271.9 382L1271.9 374.25Z" fill="#B7B9C8" opacity="0.9"/><path d="M1273.58 374.25L1273.58 382L1275.71 382L1275.71 377.94Q1275.71 376.75 1276.1 376.23Q1276.49 375.72 1277.36 375.72Q1278.13 375.72 1278.43 376.19Q1278.73 376.66 1278.73 377.62L1278.73 382L1280.86 382L1280.86 377.23Q1280.86 376.51 1280.73 375.92Q1280.6 375.33 1280.29 374.91Q1279.97 374.5 1279.43 374.27Q1278.88 374.04 1278.02 374.04Q1277.35 374.04 1276.7 374.34Q1276.06 374.65 1275.65 375.33L1275.61 375.33L1275.61 374.25Z" fill="#B7B9C8" opacity="0.9"/><path d="M1286.09 380.17Q1285.6 380.17 1285.27 379.96Q1284.94 379.75 1284.74 379.42Q1284.53 379.09 1284.45 378.68Q1284.37 378.27 1284.37 377.85Q1284.37 377.41 1284.47 377.01Q1284.56 376.62 1284.78 376.31Q1285 376 1285.32 375.82Q1285.64 375.64 1286.09 375.64Q1286.62 375.64 1286.96 375.84Q1287.31 376.03 1287.52 376.36Q1287.73 376.69 1287.82 377.12Q1287.91 377.55 1287.91 378.03Q1287.91 378.45 1287.8 378.83Q1287.68 379.21 1287.46 379.51Q1287.23 379.81 1286.89 379.99Q1286.54 380.17 1286.09 380.17ZM1289.93 381.51L1289.93 374.25L1287.91 374.25L1287.91 375.28L1287.88 375.28Q1287.49 374.61 1286.91 374.32Q1286.33 374.04 1285.57 374.04Q1284.76 374.04 1284.14 374.35Q1283.51 374.67 1283.09 375.2Q1282.67 375.73 1282.46 376.43Q1282.24 377.13 1282.24 377.88Q1282.24 378.67 1282.43 379.38Q1282.61 380.1 1283.02 380.63Q1283.42 381.16 1284.05 381.47Q1284.68 381.78 1285.55 381.78Q1286.26 381.78 1286.9 381.48Q1287.53 381.19 1287.88 380.58L1287.91 380.58L1287.91 381.6Q1287.92 382.42 1287.51 382.96Q1287.1 383.5 1286.2 383.5Q1285.63 383.5 1285.19 383.27Q1284.76 383.04 1284.61 382.44L1282.49 382.44Q1282.54 383.1 1282.86 383.57Q1283.18 384.04 1283.67 384.34Q1284.16 384.64 1284.75 384.78Q1285.34 384.93 1285.91 384.93Q1287.25 384.93 1288.04 384.57Q1288.84 384.21 1289.26 383.69Q1289.68 383.17 1289.81 382.57Q1289.93 381.97 1289.93 381.51Z" fill="#B7B9C8" opacity="0.9"/><path d="M1293.29 379.48L1291.27 379.48Q1291.3 380.26 1291.62 380.78Q1291.94 381.3 1292.45 381.61Q1292.95 381.93 1293.59 382.06Q1294.24 382.2 1294.91 382.2Q1295.57 382.2 1296.21 382.07Q1296.85 381.94 1297.34 381.63Q1297.84 381.31 1298.15 380.79Q1298.45 380.28 1298.45 379.51Q1298.45 378.97 1298.24 378.6Q1298.03 378.24 1297.69 377.99Q1297.34 377.74 1296.9 377.59Q1296.46 377.44 1295.99 377.34Q1295.54 377.23 1295.11 377.14Q1294.67 377.05 1294.34 376.94Q1294 376.83 1293.79 376.65Q1293.58 376.47 1293.58 376.18Q1293.58 375.94 1293.7 375.8Q1293.82 375.66 1293.99 375.58Q1294.16 375.51 1294.37 375.48Q1294.58 375.46 1294.76 375.46Q1295.33 375.46 1295.75 375.68Q1296.17 375.9 1296.22 376.51L1298.24 376.51Q1298.18 375.79 1297.88 375.32Q1297.57 374.85 1297.1 374.56Q1296.64 374.28 1296.05 374.16Q1295.45 374.04 1294.82 374.04Q1294.19 374.04 1293.59 374.15Q1292.99 374.26 1292.51 374.54Q1292.03 374.82 1291.74 375.3Q1291.45 375.78 1291.45 376.53Q1291.45 377.04 1291.66 377.39Q1291.87 377.74 1292.21 377.97Q1292.56 378.21 1293 378.35Q1293.44 378.49 1293.91 378.6Q1295.05 378.84 1295.69 379.08Q1296.32 379.32 1296.32 379.8Q1296.32 380.08 1296.19 380.27Q1296.05 380.46 1295.85 380.57Q1295.65 380.68 1295.4 380.73Q1295.15 380.79 1294.93 380.79Q1294.61 380.79 1294.32 380.71Q1294.03 380.64 1293.8 380.48Q1293.58 380.32 1293.44 380.07Q1293.29 379.83 1293.29 379.48Z" fill="#B7B9C8" opacity="0.9"/></g>
    <rect x="1106" y="392" width="110" height="3" rx="1.5" fill="#E6E7F0" opacity="0.9"/>

    
    <rect x="1366" y="404" width="34" height="34" rx="9" fill="#111116" stroke="#2E2E39"/>
    <path d="M1383 414l-6 10h12l-6-10z" fill="#BFC2D3" opacity="0.85"/>

    
    <g><path d="M1173.73 448L1175.59 448L1179.44 458L1177.56 458L1176.62 455.35L1172.63 455.35L1171.7 458L1169.89 458ZM1173.11 454.02L1176.16 454.02L1174.66 449.73L1174.62 449.73Z" fill="#D0D1DD" opacity="0.95"/><path d="M1179.45 450.76L1180.64 450.76L1180.64 450.16Q1180.64 449.47 1180.81 449.05Q1180.98 448.62 1181.26 448.39Q1181.54 448.16 1181.9 448.08Q1182.25 448 1182.64 448Q1183.41 448 1183.76 448.1L1183.76 449.35Q1183.61 449.31 1183.44 449.29Q1183.26 449.26 1183.02 449.26Q1182.7 449.26 1182.47 449.42Q1182.24 449.57 1182.24 450.02L1182.24 450.76L1183.6 450.76L1183.6 451.95L1182.24 451.95L1182.24 458L1180.64 458L1180.64 451.95L1179.45 451.95Z" fill="#D0D1DD" opacity="0.95"/><path d="M1183.85 450.76L1185.05 450.76L1185.05 448.59L1186.65 448.59L1186.65 450.76L1188.09 450.76L1188.09 451.95L1186.65 451.95L1186.65 455.82Q1186.65 456.07 1186.67 456.25Q1186.69 456.43 1186.77 456.56Q1186.84 456.68 1187 456.75Q1187.15 456.81 1187.42 456.81Q1187.59 456.81 1187.75 456.8Q1187.92 456.8 1188.09 456.75L1188.09 457.99Q1187.82 458.01 1187.57 458.04Q1187.32 458.07 1187.05 458.07Q1186.42 458.07 1186.04 457.95Q1185.65 457.83 1185.44 457.6Q1185.22 457.37 1185.14 457.02Q1185.07 456.67 1185.05 456.22L1185.05 451.95L1183.85 451.95Z" fill="#D0D1DD" opacity="0.95"/><path d="M1194.21 453.74Q1194.18 453.37 1194.05 453.02Q1193.91 452.67 1193.68 452.41Q1193.45 452.15 1193.12 451.99Q1192.79 451.83 1192.39 451.83Q1191.97 451.83 1191.63 451.97Q1191.28 452.12 1191.04 452.38Q1190.79 452.64 1190.65 452.99Q1190.5 453.34 1190.48 453.74ZM1190.48 454.79Q1190.48 455.21 1190.6 455.61Q1190.72 456 1190.96 456.29Q1191.2 456.59 1191.56 456.76Q1191.93 456.94 1192.43 456.94Q1193.13 456.94 1193.56 456.64Q1193.98 456.33 1194.19 455.73L1195.71 455.73Q1195.58 456.32 1195.27 456.78Q1194.96 457.24 1194.53 457.56Q1194.1 457.87 1193.56 458.04Q1193.02 458.2 1192.43 458.2Q1191.58 458.2 1190.92 457.92Q1190.26 457.64 1189.81 457.13Q1189.35 456.63 1189.12 455.93Q1188.89 455.23 1188.89 454.39Q1188.89 453.62 1189.13 452.93Q1189.38 452.23 1189.83 451.71Q1190.29 451.18 1190.93 450.87Q1191.58 450.57 1192.39 450.57Q1193.24 450.57 1193.92 450.92Q1194.6 451.28 1195.05 451.87Q1195.5 452.46 1195.7 453.22Q1195.9 453.98 1195.8 454.79Z" fill="#D0D1DD" opacity="0.95"/><path d="M1197.02 450.76L1198.52 450.76L1198.52 452.16L1198.55 452.16Q1198.62 451.87 1198.82 451.59Q1199.02 451.31 1199.31 451.08Q1199.6 450.85 1199.95 450.71Q1200.3 450.57 1200.66 450.57Q1200.94 450.57 1201.05 450.58Q1201.15 450.59 1201.26 450.61L1201.26 452.15Q1201.1 452.12 1200.92 452.1Q1200.75 452.08 1200.58 452.08Q1200.17 452.08 1199.82 452.24Q1199.46 452.4 1199.19 452.72Q1198.93 453.03 1198.77 453.49Q1198.62 453.95 1198.62 454.56L1198.62 458L1197.02 458Z" fill="#D0D1DD" opacity="0.95"/><path d="M1206.07 448L1213.26 448L1213.26 449.52L1207.82 449.52L1207.82 452.13L1212.86 452.13L1212.86 453.56L1207.82 453.56L1207.82 456.49L1213.36 456.49L1213.36 458L1206.07 458Z" fill="#D0D1DD" opacity="0.95"/><path d="M1213.95 450.76L1215.14 450.76L1215.14 450.16Q1215.14 449.47 1215.31 449.05Q1215.47 448.62 1215.75 448.39Q1216.03 448.16 1216.39 448.08Q1216.75 448 1217.14 448Q1217.91 448 1218.26 448.1L1218.26 449.35Q1218.11 449.31 1217.93 449.29Q1217.76 449.26 1217.52 449.26Q1217.2 449.26 1216.97 449.42Q1216.73 449.57 1216.73 450.02L1216.73 450.76L1218.09 450.76L1218.09 451.95L1216.73 451.95L1216.73 458L1215.14 458L1215.14 451.95L1213.95 451.95Z" fill="#D0D1DD" opacity="0.95"/><path d="M1218.11 450.76L1219.3 450.76L1219.3 450.16Q1219.3 449.47 1219.46 449.05Q1219.63 448.62 1219.91 448.39Q1220.19 448.16 1220.55 448.08Q1220.91 448 1221.3 448Q1222.07 448 1222.42 448.1L1222.42 449.35Q1222.26 449.31 1222.09 449.29Q1221.91 449.26 1221.68 449.26Q1221.35 449.26 1221.12 449.42Q1220.89 449.57 1220.89 450.02L1220.89 450.76L1222.25 450.76L1222.25 451.95L1220.89 451.95L1220.89 458L1219.3 458L1219.3 451.95L1218.11 451.95Z" fill="#D0D1DD" opacity="0.95"/><path d="M1228.2 453.74Q1228.17 453.37 1228.04 453.02Q1227.91 452.67 1227.68 452.41Q1227.44 452.15 1227.12 451.99Q1226.79 451.83 1226.38 451.83Q1225.96 451.83 1225.62 451.97Q1225.27 452.12 1225.03 452.38Q1224.78 452.64 1224.64 452.99Q1224.49 453.34 1224.48 453.74ZM1224.48 454.79Q1224.48 455.21 1224.6 455.61Q1224.71 456 1224.95 456.29Q1225.19 456.59 1225.55 456.76Q1225.92 456.94 1226.42 456.94Q1227.12 456.94 1227.55 456.64Q1227.98 456.33 1228.19 455.73L1229.7 455.73Q1229.57 456.32 1229.26 456.78Q1228.96 457.24 1228.52 457.56Q1228.09 457.87 1227.55 458.04Q1227.01 458.2 1226.42 458.2Q1225.57 458.2 1224.91 457.92Q1224.25 457.64 1223.8 457.13Q1223.34 456.63 1223.11 455.93Q1222.88 455.23 1222.88 454.39Q1222.88 453.62 1223.13 452.93Q1223.37 452.23 1223.83 451.71Q1224.28 451.18 1224.92 450.87Q1225.57 450.57 1226.38 450.57Q1227.23 450.57 1227.91 450.92Q1228.59 451.28 1229.04 451.87Q1229.49 452.46 1229.69 453.22Q1229.89 453.98 1229.8 454.79Z" fill="#D0D1DD" opacity="0.95"/><path d="M1235.9 453.18Q1235.8 452.51 1235.36 452.17Q1234.92 451.83 1234.25 451.83Q1233.94 451.83 1233.59 451.93Q1233.24 452.04 1232.95 452.32Q1232.65 452.61 1232.46 453.12Q1232.26 453.63 1232.26 454.46Q1232.26 454.91 1232.37 455.35Q1232.47 455.8 1232.7 456.15Q1232.93 456.5 1233.3 456.72Q1233.66 456.94 1234.18 456.94Q1234.88 456.94 1235.33 456.5Q1235.79 456.07 1235.9 455.28L1237.5 455.28Q1237.27 456.7 1236.43 457.45Q1235.58 458.2 1234.18 458.2Q1233.32 458.2 1232.67 457.91Q1232.02 457.62 1231.57 457.13Q1231.13 456.63 1230.9 455.94Q1230.66 455.26 1230.66 454.46Q1230.66 453.65 1230.89 452.93Q1231.11 452.22 1231.56 451.69Q1232.01 451.17 1232.67 450.87Q1233.34 450.57 1234.23 450.57Q1234.86 450.57 1235.43 450.73Q1236 450.89 1236.44 451.21Q1236.88 451.53 1237.16 452.02Q1237.44 452.51 1237.5 453.18Z" fill="#D0D1DD" opacity="0.95"/><path d="M1238.07 450.76L1239.27 450.76L1239.27 448.59L1240.87 448.59L1240.87 450.76L1242.31 450.76L1242.31 451.95L1240.87 451.95L1240.87 455.82Q1240.87 456.07 1240.89 456.25Q1240.91 456.43 1240.99 456.56Q1241.07 456.68 1241.22 456.75Q1241.37 456.81 1241.64 456.81Q1241.81 456.81 1241.98 456.8Q1242.14 456.8 1242.31 456.75L1242.31 457.99Q1242.05 458.01 1241.79 458.04Q1241.54 458.07 1241.28 458.07Q1240.65 458.07 1240.26 457.95Q1239.88 457.83 1239.66 457.6Q1239.44 457.37 1239.37 457.02Q1239.29 456.67 1239.27 456.22L1239.27 451.95L1238.07 451.95Z" fill="#D0D1DD" opacity="0.95"/><path d="M1244.66 455.68Q1244.73 456.38 1245.2 456.66Q1245.66 456.94 1246.3 456.94Q1246.53 456.94 1246.81 456.9Q1247.1 456.87 1247.35 456.77Q1247.6 456.67 1247.77 456.48Q1247.93 456.29 1247.91 455.98Q1247.9 455.68 1247.69 455.48Q1247.48 455.28 1247.15 455.17Q1246.82 455.05 1246.4 454.96Q1245.98 454.88 1245.55 454.78Q1245.1 454.68 1244.69 454.54Q1244.27 454.4 1243.94 454.16Q1243.61 453.93 1243.42 453.56Q1243.22 453.18 1243.22 452.64Q1243.22 452.05 1243.51 451.65Q1243.8 451.25 1244.24 451.01Q1244.68 450.76 1245.22 450.66Q1245.76 450.57 1246.25 450.57Q1246.81 450.57 1247.32 450.69Q1247.83 450.8 1248.24 451.07Q1248.65 451.34 1248.93 451.76Q1249.2 452.19 1249.27 452.79L1247.6 452.79Q1247.49 452.22 1247.08 452.02Q1246.67 451.83 1246.13 451.83Q1245.97 451.83 1245.74 451.85Q1245.5 451.88 1245.3 451.96Q1245.1 452.04 1244.96 452.18Q1244.82 452.33 1244.82 452.57Q1244.82 452.86 1245.02 453.04Q1245.22 453.23 1245.55 453.35Q1245.88 453.46 1246.3 453.55Q1246.72 453.63 1247.17 453.73Q1247.6 453.83 1248.02 453.97Q1248.44 454.11 1248.77 454.35Q1249.1 454.58 1249.31 454.95Q1249.51 455.31 1249.51 455.84Q1249.51 456.49 1249.21 456.94Q1248.92 457.38 1248.45 457.66Q1247.98 457.94 1247.41 458.07Q1246.83 458.2 1246.27 458.2Q1245.59 458.2 1245.01 458.04Q1244.43 457.89 1244 457.57Q1243.57 457.26 1243.33 456.79Q1243.08 456.32 1243.07 455.68Z" fill="#D0D1DD" opacity="0.95"/><path d="M1263.2 454.58Q1261.5 455.2 1260.54 456.6L1260.05 456.6Q1260.38 455.62 1261.15 454.75L1254.34 454.75L1254.34 454.08L1261.15 454.08Q1260.38 453.21 1260.05 452.23L1260.54 452.23Q1261.5 453.63 1263.2 454.25Z" fill="#D0D1DD" opacity="0.95"/><path d="M1273.88 451.18Q1273.77 450.75 1273.57 450.38Q1273.38 450.02 1273.07 449.75Q1272.76 449.49 1272.35 449.34Q1271.94 449.19 1271.39 449.19Q1270.59 449.19 1270.01 449.52Q1269.43 449.84 1269.07 450.38Q1268.7 450.92 1268.53 451.6Q1268.35 452.29 1268.35 453Q1268.35 453.72 1268.53 454.4Q1268.7 455.09 1269.07 455.63Q1269.43 456.17 1270.01 456.49Q1270.59 456.81 1271.39 456.81Q1271.98 456.81 1272.43 456.61Q1272.87 456.4 1273.2 456.05Q1273.52 455.69 1273.7 455.21Q1273.88 454.74 1273.94 454.19L1275.65 454.19Q1275.59 455.09 1275.26 455.83Q1274.93 456.57 1274.37 457.11Q1273.81 457.65 1273.06 457.94Q1272.3 458.24 1271.39 458.24Q1270.27 458.24 1269.38 457.83Q1268.49 457.41 1267.88 456.7Q1267.26 455.98 1266.93 455.03Q1266.6 454.08 1266.6 453Q1266.6 451.94 1266.93 450.99Q1267.26 450.03 1267.88 449.32Q1268.49 448.61 1269.38 448.19Q1270.27 447.77 1271.39 447.77Q1272.23 447.77 1272.97 448Q1273.71 448.23 1274.28 448.67Q1274.85 449.11 1275.2 449.74Q1275.55 450.37 1275.63 451.18Z" fill="#D0D1DD" opacity="0.95"/><path d="M1277.02 450.76L1278.52 450.76L1278.52 452.16L1278.54 452.16Q1278.61 451.87 1278.82 451.59Q1279.02 451.31 1279.31 451.08Q1279.59 450.85 1279.94 450.71Q1280.29 450.57 1280.66 450.57Q1280.94 450.57 1281.04 450.58Q1281.15 450.59 1281.26 450.61L1281.26 452.15Q1281.09 452.12 1280.92 452.1Q1280.74 452.08 1280.57 452.08Q1280.17 452.08 1279.81 452.24Q1279.45 452.4 1279.19 452.72Q1278.92 453.03 1278.77 453.49Q1278.61 453.95 1278.61 454.56L1278.61 458L1277.02 458Z" fill="#D0D1DD" opacity="0.95"/><path d="M1285.01 458.2Q1284.14 458.2 1283.47 457.91Q1282.79 457.62 1282.32 457.12Q1281.85 456.61 1281.6 455.91Q1281.36 455.21 1281.36 454.37Q1281.36 453.55 1281.6 452.85Q1281.85 452.15 1282.32 451.64Q1282.79 451.14 1283.47 450.85Q1284.14 450.57 1285.01 450.57Q1285.88 450.57 1286.56 450.85Q1287.24 451.14 1287.71 451.64Q1288.18 452.15 1288.42 452.85Q1288.67 453.55 1288.67 454.37Q1288.67 455.21 1288.42 455.91Q1288.18 456.61 1287.71 457.12Q1287.24 457.62 1286.56 457.91Q1285.88 458.2 1285.01 458.2ZM1285.01 456.94Q1285.54 456.94 1285.94 456.71Q1286.33 456.49 1286.58 456.12Q1286.83 455.76 1286.95 455.31Q1287.07 454.85 1287.07 454.37Q1287.07 453.91 1286.95 453.45Q1286.83 452.99 1286.58 452.63Q1286.33 452.27 1285.94 452.05Q1285.54 451.83 1285.01 451.83Q1284.48 451.83 1284.09 452.05Q1283.7 452.27 1283.44 452.63Q1283.19 452.99 1283.07 453.45Q1282.95 453.91 1282.95 454.37Q1282.95 454.85 1283.07 455.31Q1283.19 455.76 1283.44 456.12Q1283.7 456.49 1284.09 456.71Q1284.48 456.94 1285.01 456.94Z" fill="#D0D1DD" opacity="0.95"/><path d="M1289.34 450.76L1291.03 450.76L1292.45 456.17L1292.47 456.17L1293.83 450.76L1295.44 450.76L1296.74 456.17L1296.77 456.17L1298.24 450.76L1299.87 450.76L1297.6 458L1295.96 458L1294.62 452.62L1294.59 452.62L1293.26 458L1291.58 458Z" fill="#D0D1DD" opacity="0.95"/><path d="M1307.71 458L1306.19 458L1306.19 457.02L1306.17 457.02Q1305.84 457.65 1305.23 457.92Q1304.61 458.2 1303.93 458.2Q1303.07 458.2 1302.44 457.9Q1301.8 457.59 1301.38 457.08Q1300.96 456.56 1300.75 455.85Q1300.54 455.14 1300.54 454.33Q1300.54 453.35 1300.8 452.64Q1301.07 451.92 1301.51 451.46Q1301.95 451 1302.52 450.78Q1303.09 450.57 1303.67 450.57Q1304.01 450.57 1304.36 450.63Q1304.71 450.69 1305.03 450.83Q1305.35 450.97 1305.63 451.19Q1305.9 451.41 1306.08 451.7L1306.11 451.7L1306.11 448L1307.71 448ZM1302.13 454.46Q1302.13 454.92 1302.25 455.37Q1302.37 455.82 1302.62 456.17Q1302.86 456.52 1303.24 456.73Q1303.62 456.94 1304.14 456.94Q1304.67 456.94 1305.05 456.71Q1305.44 456.49 1305.68 456.12Q1305.93 455.76 1306.05 455.31Q1306.17 454.85 1306.17 454.37Q1306.17 453.17 1305.63 452.5Q1305.09 451.83 1304.16 451.83Q1303.6 451.83 1303.22 452.06Q1302.83 452.29 1302.59 452.66Q1302.34 453.03 1302.24 453.5Q1302.13 453.97 1302.13 454.46Z" fill="#D0D1DD" opacity="0.95"/><path d="M1309.48 448L1311.08 448L1311.08 449.52L1309.48 449.52ZM1309.48 450.76L1311.08 450.76L1311.08 458L1309.48 458Z" fill="#D0D1DD" opacity="0.95"/><path d="M1312.82 450.76L1314.33 450.76L1314.33 451.83L1314.36 451.85Q1314.72 451.25 1315.31 450.91Q1315.9 450.57 1316.61 450.57Q1317.8 450.57 1318.49 451.18Q1319.17 451.8 1319.17 453.03L1319.17 458L1317.58 458L1317.58 453.45Q1317.55 452.6 1317.21 452.21Q1316.88 451.83 1316.16 451.83Q1315.76 451.83 1315.43 451.97Q1315.11 452.12 1314.89 452.38Q1314.66 452.64 1314.54 452.99Q1314.41 453.34 1314.41 453.73L1314.41 458L1312.82 458Z" fill="#D0D1DD" opacity="0.95"/></g>
    <rect x="1110" y="484" width="270" height="54" rx="12" fill="#101015" stroke="#3A3A49"/>
    
    <g><path d="M1231.53 511.96Q1231.53 512.5 1231.71 512.87Q1231.89 513.25 1232.21 513.49Q1232.54 513.73 1232.96 513.84Q1233.38 513.95 1233.88 513.95Q1234.41 513.95 1234.79 513.83Q1235.17 513.7 1235.4 513.51Q1235.63 513.31 1235.74 513.06Q1235.84 512.81 1235.84 512.55Q1235.84 512.01 1235.6 511.76Q1235.36 511.51 1235.07 511.4Q1234.58 511.22 1233.92 511.06Q1233.27 510.9 1232.31 510.64Q1231.71 510.48 1231.31 510.23Q1230.91 509.97 1230.68 509.66Q1230.45 509.35 1230.35 509Q1230.25 508.65 1230.25 508.28Q1230.25 507.58 1230.54 507.07Q1230.84 506.55 1231.32 506.22Q1231.8 505.88 1232.41 505.72Q1233.02 505.55 1233.64 505.55Q1234.37 505.55 1235.02 505.74Q1235.66 505.93 1236.15 506.31Q1236.63 506.68 1236.92 507.24Q1237.21 507.79 1237.21 508.52L1235.58 508.52Q1235.52 507.62 1234.97 507.25Q1234.42 506.88 1233.58 506.88Q1233.29 506.88 1232.99 506.94Q1232.7 507 1232.45 507.13Q1232.2 507.27 1232.04 507.5Q1231.88 507.74 1231.88 508.09Q1231.88 508.58 1232.18 508.86Q1232.49 509.14 1232.98 509.28Q1233.03 509.3 1233.39 509.39Q1233.75 509.49 1234.19 509.61Q1234.63 509.73 1235.06 509.84Q1235.48 509.95 1235.66 510Q1236.11 510.14 1236.45 510.39Q1236.79 510.64 1237.02 510.95Q1237.25 511.27 1237.36 511.64Q1237.47 512 1237.47 512.37Q1237.47 513.15 1237.15 513.7Q1236.83 514.25 1236.31 514.6Q1235.79 514.95 1235.13 515.11Q1234.46 515.28 1233.77 515.28Q1232.98 515.28 1232.28 515.08Q1231.58 514.89 1231.06 514.48Q1230.54 514.08 1230.23 513.45Q1229.91 512.82 1229.9 511.96Z" fill="#E6E7F0"/><path d="M1243.29 511.1Q1243.26 510.75 1243.14 510.43Q1243.02 510.1 1242.8 509.86Q1242.59 509.62 1242.28 509.47Q1241.98 509.32 1241.6 509.32Q1241.21 509.32 1240.89 509.46Q1240.57 509.6 1240.35 509.84Q1240.12 510.08 1239.98 510.4Q1239.85 510.73 1239.83 511.1ZM1239.83 512.08Q1239.83 512.47 1239.94 512.83Q1240.05 513.2 1240.27 513.47Q1240.5 513.74 1240.83 513.91Q1241.17 514.07 1241.64 514.07Q1242.29 514.07 1242.69 513.79Q1243.08 513.51 1243.28 512.95L1244.68 512.95Q1244.56 513.5 1244.28 513.93Q1243.99 514.35 1243.59 514.65Q1243.19 514.94 1242.69 515.09Q1242.19 515.24 1241.64 515.24Q1240.85 515.24 1240.24 514.98Q1239.62 514.72 1239.2 514.25Q1238.78 513.78 1238.57 513.13Q1238.35 512.48 1238.35 511.7Q1238.35 510.99 1238.58 510.34Q1238.81 509.7 1239.23 509.21Q1239.65 508.73 1240.25 508.44Q1240.85 508.15 1241.6 508.15Q1242.39 508.15 1243.02 508.48Q1243.65 508.82 1244.07 509.36Q1244.49 509.91 1244.68 510.62Q1244.86 511.33 1244.77 512.08Z" fill="#E6E7F0"/><path d="M1245.9 508.34L1247.31 508.34L1247.31 509.32L1247.33 509.35Q1247.67 508.79 1248.22 508.47Q1248.76 508.15 1249.43 508.15Q1250.53 508.15 1251.17 508.73Q1251.81 509.3 1251.81 510.44L1251.81 515.06L1250.32 515.06L1250.32 510.83Q1250.3 510.04 1249.99 509.68Q1249.67 509.32 1249.01 509.32Q1248.63 509.32 1248.33 509.46Q1248.04 509.6 1247.83 509.84Q1247.62 510.08 1247.5 510.4Q1247.39 510.73 1247.39 511.09L1247.39 515.06L1245.9 515.06Z" fill="#E6E7F0"/><path d="M1259.7 515.06L1258.29 515.06L1258.29 514.15L1258.27 514.15Q1257.97 514.73 1257.4 514.98Q1256.82 515.24 1256.19 515.24Q1255.39 515.24 1254.8 514.96Q1254.21 514.68 1253.82 514.2Q1253.43 513.72 1253.24 513.06Q1253.04 512.4 1253.04 511.65Q1253.04 510.74 1253.29 510.08Q1253.53 509.41 1253.94 508.99Q1254.35 508.56 1254.88 508.35Q1255.41 508.15 1255.95 508.15Q1256.26 508.15 1256.59 508.21Q1256.91 508.27 1257.21 508.4Q1257.51 508.53 1257.77 508.73Q1258.02 508.93 1258.19 509.21L1258.21 509.21L1258.21 505.77L1259.7 505.77ZM1254.52 511.77Q1254.52 512.2 1254.63 512.61Q1254.74 513.03 1254.97 513.35Q1255.2 513.68 1255.55 513.87Q1255.9 514.07 1256.38 514.07Q1256.88 514.07 1257.23 513.86Q1257.59 513.65 1257.82 513.31Q1258.05 512.98 1258.16 512.55Q1258.27 512.13 1258.27 511.69Q1258.27 510.57 1257.77 509.95Q1257.27 509.32 1256.41 509.32Q1255.89 509.32 1255.53 509.54Q1255.17 509.75 1254.95 510.1Q1254.72 510.44 1254.62 510.88Q1254.52 511.31 1254.52 511.77Z" fill="#E6E7F0"/></g>

    <rect x="1110" y="560" width="270" height="2" rx="1" fill="#2C2C36" opacity="0.8"/>

    <g><path d="M1177.8 603.18Q1177.69 602.75 1177.49 602.38Q1177.3 602.02 1176.99 601.75Q1176.68 601.49 1176.27 601.34Q1175.85 601.19 1175.31 601.19Q1174.51 601.19 1173.93 601.52Q1173.35 601.84 1172.98 602.38Q1172.62 602.92 1172.45 603.6Q1172.27 604.29 1172.27 605Q1172.27 605.72 1172.45 606.4Q1172.62 607.09 1172.98 607.63Q1173.35 608.17 1173.93 608.49Q1174.51 608.81 1175.31 608.81Q1175.9 608.81 1176.34 608.61Q1176.79 608.4 1177.11 608.05Q1177.44 607.69 1177.62 607.21Q1177.8 606.74 1177.86 606.19L1179.56 606.19Q1179.51 607.09 1179.18 607.83Q1178.85 608.57 1178.29 609.11Q1177.73 609.65 1176.97 609.94Q1176.22 610.24 1175.31 610.24Q1174.19 610.24 1173.3 609.83Q1172.41 609.41 1171.79 608.7Q1171.18 607.98 1170.85 607.03Q1170.52 606.08 1170.52 605Q1170.52 603.94 1170.85 602.99Q1171.18 602.03 1171.79 601.32Q1172.41 600.61 1173.3 600.19Q1174.19 599.77 1175.31 599.77Q1176.15 599.77 1176.89 600Q1177.63 600.23 1178.2 600.67Q1178.77 601.11 1179.12 601.74Q1179.47 602.37 1179.55 603.18Z" fill="#D0D1DD" opacity="0.95"/><path d="M1180.94 602.76L1182.43 602.76L1182.43 604.16L1182.46 604.16Q1182.53 603.87 1182.73 603.59Q1182.94 603.31 1183.22 603.08Q1183.51 602.85 1183.86 602.71Q1184.21 602.57 1184.58 602.57Q1184.86 602.57 1184.96 602.58Q1185.07 602.59 1185.18 602.61L1185.18 604.15Q1185.01 604.12 1184.84 604.1Q1184.66 604.08 1184.49 604.08Q1184.09 604.08 1183.73 604.24Q1183.37 604.4 1183.11 604.72Q1182.84 605.03 1182.69 605.49Q1182.53 605.95 1182.53 606.56L1182.53 610L1180.94 610Z" fill="#D0D1DD" opacity="0.95"/><path d="M1188.93 610.2Q1188.06 610.2 1187.38 609.91Q1186.7 609.62 1186.23 609.12Q1185.77 608.61 1185.52 607.91Q1185.28 607.21 1185.28 606.37Q1185.28 605.55 1185.52 604.85Q1185.77 604.15 1186.23 603.64Q1186.7 603.14 1187.38 602.85Q1188.06 602.57 1188.93 602.57Q1189.8 602.57 1190.48 602.85Q1191.16 603.14 1191.63 603.64Q1192.09 604.15 1192.34 604.85Q1192.58 605.55 1192.58 606.37Q1192.58 607.21 1192.34 607.91Q1192.09 608.61 1191.63 609.12Q1191.16 609.62 1190.48 609.91Q1189.8 610.2 1188.93 610.2ZM1188.93 608.94Q1189.46 608.94 1189.85 608.71Q1190.25 608.49 1190.5 608.12Q1190.75 607.76 1190.87 607.3Q1190.99 606.85 1190.99 606.37Q1190.99 605.91 1190.87 605.45Q1190.75 604.99 1190.5 604.63Q1190.25 604.27 1189.85 604.05Q1189.46 603.83 1188.93 603.83Q1188.4 603.83 1188.01 604.05Q1187.61 604.27 1187.36 604.63Q1187.11 604.99 1186.99 605.45Q1186.87 605.91 1186.87 606.37Q1186.87 606.85 1186.99 607.3Q1187.11 607.76 1187.36 608.12Q1187.61 608.49 1188.01 608.71Q1188.4 608.94 1188.93 608.94Z" fill="#D0D1DD" opacity="0.95"/><path d="M1193.26 602.76L1194.95 602.76L1196.36 608.17L1196.39 608.17L1197.75 602.76L1199.36 602.76L1200.66 608.17L1200.69 608.17L1202.16 602.76L1203.78 602.76L1201.52 610L1199.88 610L1198.53 604.62L1198.51 604.62L1197.18 610L1195.5 610Z" fill="#D0D1DD" opacity="0.95"/><path d="M1211.62 610L1210.11 610L1210.11 609.02L1210.08 609.02Q1209.76 609.65 1209.15 609.92Q1208.53 610.2 1207.84 610.2Q1206.99 610.2 1206.35 609.9Q1205.72 609.59 1205.3 609.08Q1204.88 608.56 1204.67 607.85Q1204.46 607.14 1204.46 606.33Q1204.46 605.35 1204.72 604.64Q1204.99 603.92 1205.43 603.46Q1205.87 603 1206.44 602.78Q1207 602.57 1207.59 602.57Q1207.93 602.57 1208.28 602.63Q1208.63 602.69 1208.95 602.83Q1209.27 602.97 1209.54 603.19Q1209.82 603.41 1210 603.7L1210.03 603.7L1210.03 600L1211.62 600ZM1206.05 606.46Q1206.05 606.92 1206.17 607.37Q1206.29 607.82 1206.53 608.17Q1206.78 608.52 1207.16 608.73Q1207.54 608.94 1208.05 608.94Q1208.59 608.94 1208.97 608.71Q1209.36 608.49 1209.6 608.12Q1209.85 607.76 1209.96 607.3Q1210.08 606.85 1210.08 606.37Q1210.08 605.17 1209.54 604.5Q1209.01 603.83 1208.08 603.83Q1207.52 603.83 1207.14 604.06Q1206.75 604.29 1206.51 604.66Q1206.26 605.03 1206.16 605.5Q1206.05 605.97 1206.05 606.46Z" fill="#D0D1DD" opacity="0.95"/><path d="M1213.4 600L1215 600L1215 601.52L1213.4 601.52ZM1213.4 602.76L1215 602.76L1215 610L1213.4 610Z" fill="#D0D1DD" opacity="0.95"/><path d="M1216.73 602.76L1218.25 602.76L1218.25 603.83L1218.27 603.85Q1218.64 603.25 1219.23 602.91Q1219.81 602.57 1220.53 602.57Q1221.72 602.57 1222.4 603.18Q1223.09 603.8 1223.09 605.03L1223.09 610L1221.49 610L1221.49 605.45Q1221.47 604.6 1221.13 604.21Q1220.79 603.83 1220.08 603.83Q1219.67 603.83 1219.35 603.97Q1219.03 604.12 1218.81 604.38Q1218.58 604.64 1218.46 604.99Q1218.33 605.34 1218.33 605.73L1218.33 610L1216.73 610Z" fill="#D0D1DD" opacity="0.95"/><path d="M1237.24 606.58Q1235.54 607.2 1234.58 608.6L1234.1 608.6Q1234.43 607.62 1235.2 606.75L1228.38 606.75L1228.38 606.08L1235.2 606.08Q1234.43 605.21 1234.1 604.23L1234.58 604.23Q1235.54 605.63 1237.24 606.25Z" fill="#D0D1DD" opacity="0.95"/><path d="M1243.85 600L1245.71 600L1249.56 610L1247.69 610L1246.75 607.35L1242.76 607.35L1241.82 610L1240.02 610ZM1243.24 606.02L1246.29 606.02L1244.79 601.73L1244.75 601.73Z" fill="#D0D1DD" opacity="0.95"/><path d="M1249.58 602.76L1250.77 602.76L1250.77 602.16Q1250.77 601.47 1250.94 601.05Q1251.1 600.62 1251.38 600.39Q1251.66 600.16 1252.02 600.08Q1252.38 600 1252.77 600Q1253.54 600 1253.89 600.1L1253.89 601.35Q1253.74 601.31 1253.56 601.29Q1253.39 601.26 1253.15 601.26Q1252.83 601.26 1252.6 601.42Q1252.36 601.57 1252.36 602.02L1252.36 602.76L1253.72 602.76L1253.72 603.95L1252.36 603.95L1252.36 610L1250.77 610L1250.77 603.95L1249.58 603.95Z" fill="#D0D1DD" opacity="0.95"/><path d="M1253.97 602.76L1255.18 602.76L1255.18 600.59L1256.77 600.59L1256.77 602.76L1258.22 602.76L1258.22 603.95L1256.77 603.95L1256.77 607.82Q1256.77 608.07 1256.8 608.25Q1256.82 608.43 1256.89 608.56Q1256.97 608.68 1257.12 608.75Q1257.28 608.81 1257.54 608.81Q1257.71 608.81 1257.88 608.8Q1258.05 608.8 1258.22 608.75L1258.22 609.99Q1257.95 610.01 1257.7 610.04Q1257.45 610.07 1257.18 610.07Q1256.55 610.07 1256.17 609.95Q1255.78 609.83 1255.56 609.6Q1255.35 609.37 1255.27 609.02Q1255.19 608.67 1255.18 608.22L1255.18 603.95L1253.97 603.95Z" fill="#D0D1DD" opacity="0.95"/><path d="M1264.33 605.74Q1264.31 605.37 1264.17 605.02Q1264.04 604.67 1263.81 604.41Q1263.58 604.15 1263.25 603.99Q1262.92 603.83 1262.51 603.83Q1262.09 603.83 1261.75 603.97Q1261.41 604.12 1261.16 604.38Q1260.92 604.64 1260.77 604.99Q1260.62 605.34 1260.61 605.74ZM1260.61 606.79Q1260.61 607.21 1260.73 607.61Q1260.85 608 1261.09 608.29Q1261.32 608.59 1261.69 608.76Q1262.05 608.94 1262.56 608.94Q1263.26 608.94 1263.68 608.64Q1264.11 608.33 1264.32 607.73L1265.83 607.73Q1265.71 608.32 1265.4 608.78Q1265.09 609.24 1264.66 609.56Q1264.22 609.87 1263.68 610.04Q1263.14 610.2 1262.56 610.2Q1261.7 610.2 1261.04 609.92Q1260.39 609.64 1259.93 609.13Q1259.48 608.63 1259.25 607.93Q1259.01 607.23 1259.01 606.39Q1259.01 605.62 1259.26 604.92Q1259.5 604.23 1259.96 603.71Q1260.41 603.18 1261.06 602.87Q1261.7 602.57 1262.51 602.57Q1263.37 602.57 1264.05 602.92Q1264.73 603.28 1265.17 603.87Q1265.62 604.46 1265.83 605.22Q1266.03 605.98 1265.93 606.79Z" fill="#D0D1DD" opacity="0.95"/><path d="M1267.15 602.76L1268.65 602.76L1268.65 604.16L1268.67 604.16Q1268.74 603.87 1268.95 603.59Q1269.15 603.31 1269.44 603.08Q1269.72 602.85 1270.07 602.71Q1270.42 602.57 1270.79 602.57Q1271.07 602.57 1271.17 602.58Q1271.28 602.59 1271.39 602.61L1271.39 604.15Q1271.22 604.12 1271.05 604.1Q1270.87 604.08 1270.7 604.08Q1270.3 604.08 1269.94 604.24Q1269.58 604.4 1269.32 604.72Q1269.05 605.03 1268.9 605.49Q1268.74 605.95 1268.74 606.56L1268.74 610L1267.15 610Z" fill="#D0D1DD" opacity="0.95"/><path d="M1276.19 600L1283.39 600L1283.39 601.52L1277.94 601.52L1277.94 604.13L1282.98 604.13L1282.98 605.56L1277.94 605.56L1277.94 608.49L1283.49 608.49L1283.49 610L1276.19 610Z" fill="#D0D1DD" opacity="0.95"/><path d="M1284.07 602.76L1285.26 602.76L1285.26 602.16Q1285.26 601.47 1285.43 601.05Q1285.6 600.62 1285.88 600.39Q1286.16 600.16 1286.52 600.08Q1286.87 600 1287.27 600Q1288.04 600 1288.39 600.1L1288.39 601.35Q1288.23 601.31 1288.06 601.29Q1287.88 601.26 1287.64 601.26Q1287.32 601.26 1287.09 601.42Q1286.86 601.57 1286.86 602.02L1286.86 602.76L1288.22 602.76L1288.22 603.95L1286.86 603.95L1286.86 610L1285.26 610L1285.26 603.95L1284.07 603.95Z" fill="#D0D1DD" opacity="0.95"/><path d="M1288.23 602.76L1289.42 602.76L1289.42 602.16Q1289.42 601.47 1289.59 601.05Q1289.76 600.62 1290.04 600.39Q1290.32 600.16 1290.68 600.08Q1291.03 600 1291.42 600Q1292.19 600 1292.54 600.1L1292.54 601.35Q1292.39 601.31 1292.22 601.29Q1292.04 601.26 1291.8 601.26Q1291.48 601.26 1291.25 601.42Q1291.02 601.57 1291.02 602.02L1291.02 602.76L1292.38 602.76L1292.38 603.95L1291.02 603.95L1291.02 610L1289.42 610L1289.42 603.95L1288.23 603.95Z" fill="#D0D1DD" opacity="0.95"/><path d="M1298.33 605.74Q1298.3 605.37 1298.17 605.02Q1298.03 604.67 1297.8 604.41Q1297.57 604.15 1297.24 603.99Q1296.91 603.83 1296.51 603.83Q1296.09 603.83 1295.74 603.97Q1295.4 604.12 1295.16 604.38Q1294.91 604.64 1294.76 604.99Q1294.62 605.34 1294.6 605.74ZM1294.6 606.79Q1294.6 607.21 1294.72 607.61Q1294.84 608 1295.08 608.29Q1295.32 608.59 1295.68 608.76Q1296.04 608.94 1296.55 608.94Q1297.25 608.94 1297.68 608.64Q1298.1 608.33 1298.31 607.73L1299.82 607.73Q1299.7 608.32 1299.39 608.78Q1299.08 609.24 1298.65 609.56Q1298.21 609.87 1297.68 610.04Q1297.14 610.2 1296.55 610.2Q1295.69 610.2 1295.04 609.92Q1294.38 609.64 1293.92 609.13Q1293.47 608.63 1293.24 607.93Q1293.01 607.23 1293.01 606.39Q1293.01 605.62 1293.25 604.92Q1293.5 604.23 1293.95 603.71Q1294.41 603.18 1295.05 602.87Q1295.69 602.57 1296.51 602.57Q1297.36 602.57 1298.04 602.92Q1298.72 603.28 1299.17 603.87Q1299.61 604.46 1299.82 605.22Q1300.02 605.98 1299.92 606.79Z" fill="#D0D1DD" opacity="0.95"/><path d="M1306.03 605.18Q1305.93 604.51 1305.49 604.17Q1305.05 603.83 1304.37 603.83Q1304.07 603.83 1303.72 603.93Q1303.37 604.04 1303.07 604.32Q1302.78 604.61 1302.58 605.12Q1302.39 605.63 1302.39 606.46Q1302.39 606.91 1302.49 607.35Q1302.6 607.8 1302.83 608.15Q1303.06 608.5 1303.42 608.72Q1303.79 608.94 1304.3 608.94Q1305 608.94 1305.46 608.5Q1305.91 608.07 1306.03 607.28L1307.62 607.28Q1307.4 608.7 1306.55 609.45Q1305.7 610.2 1304.3 610.2Q1303.45 610.2 1302.8 609.91Q1302.15 609.62 1301.7 609.13Q1301.25 608.63 1301.02 607.94Q1300.79 607.26 1300.79 606.46Q1300.79 605.65 1301.01 604.93Q1301.24 604.22 1301.69 603.69Q1302.13 603.17 1302.8 602.87Q1303.46 602.57 1304.36 602.57Q1304.99 602.57 1305.56 602.73Q1306.12 602.89 1306.57 603.21Q1307.01 603.53 1307.29 604.02Q1307.57 604.51 1307.62 605.18Z" fill="#D0D1DD" opacity="0.95"/><path d="M1308.2 602.76L1309.4 602.76L1309.4 600.59L1311 600.59L1311 602.76L1312.44 602.76L1312.44 603.95L1311 603.95L1311 607.82Q1311 608.07 1311.02 608.25Q1311.04 608.43 1311.12 608.56Q1311.19 608.68 1311.35 608.75Q1311.5 608.81 1311.77 608.81Q1311.93 608.81 1312.1 608.8Q1312.27 608.8 1312.44 608.75L1312.44 609.99Q1312.17 610.01 1311.92 610.04Q1311.67 610.07 1311.4 610.07Q1310.77 610.07 1310.39 609.95Q1310 609.83 1309.79 609.6Q1309.57 609.37 1309.49 609.02Q1309.41 608.67 1309.4 608.22L1309.4 603.95L1308.2 603.95Z" fill="#D0D1DD" opacity="0.95"/><path d="M1314.79 607.68Q1314.86 608.38 1315.32 608.66Q1315.78 608.94 1316.43 608.94Q1316.65 608.94 1316.94 608.9Q1317.23 608.87 1317.48 608.77Q1317.73 608.67 1317.89 608.48Q1318.05 608.29 1318.04 607.98Q1318.02 607.68 1317.81 607.48Q1317.6 607.28 1317.28 607.17Q1316.95 607.05 1316.53 606.96Q1316.11 606.88 1315.67 606.78Q1315.22 606.68 1314.81 606.54Q1314.4 606.4 1314.07 606.16Q1313.74 605.93 1313.54 605.55Q1313.35 605.18 1313.35 604.64Q1313.35 604.05 1313.64 603.65Q1313.92 603.25 1314.36 603.01Q1314.8 602.76 1315.34 602.66Q1315.88 602.57 1316.37 602.57Q1316.93 602.57 1317.44 602.68Q1317.95 602.8 1318.37 603.07Q1318.78 603.34 1319.05 603.76Q1319.33 604.19 1319.4 604.79L1317.73 604.79Q1317.62 604.22 1317.21 604.02Q1316.79 603.83 1316.26 603.83Q1316.09 603.83 1315.86 603.85Q1315.63 603.88 1315.43 603.96Q1315.22 604.04 1315.08 604.18Q1314.94 604.33 1314.94 604.57Q1314.94 604.86 1315.15 605.04Q1315.35 605.23 1315.68 605.35Q1316.01 605.46 1316.43 605.55Q1316.85 605.63 1317.3 605.73Q1317.73 605.83 1318.15 605.97Q1318.57 606.11 1318.9 606.35Q1319.23 606.58 1319.43 606.95Q1319.63 607.31 1319.63 607.84Q1319.63 608.49 1319.34 608.94Q1319.05 609.38 1318.58 609.66Q1318.11 609.94 1317.53 610.07Q1316.96 610.2 1316.4 610.2Q1315.71 610.2 1315.13 610.04Q1314.55 609.89 1314.13 609.57Q1313.7 609.26 1313.45 608.79Q1313.21 608.32 1313.19 607.68Z" fill="#D0D1DD" opacity="0.95"/></g>
    <rect x="1110" y="636" width="270" height="54" rx="12" fill="url(#accent)" stroke="#4840C8" stroke-width="1"/>
    <g><path d="M1222.31 656.97L1222.31 667.68L1224.66 667.68L1224.66 656.97Z" fill="#FFFFFF"/><path d="M1226.56 659.93L1226.56 667.68L1228.7 667.68L1228.7 663.18Q1228.7 662.61 1228.86 662.26Q1229.02 661.91 1229.26 661.72Q1229.49 661.53 1229.74 661.46Q1229.98 661.4 1230.14 661.4Q1230.65 661.4 1230.91 661.57Q1231.17 661.74 1231.28 662.03Q1231.4 662.31 1231.41 662.65Q1231.43 662.98 1231.43 663.33L1231.43 667.68L1233.55 667.68L1233.55 663.36Q1233.55 663 1233.61 662.65Q1233.66 662.3 1233.82 662.02Q1233.97 661.74 1234.25 661.57Q1234.53 661.4 1234.98 661.4Q1235.43 661.4 1235.69 661.55Q1235.96 661.7 1236.09 661.95Q1236.22 662.21 1236.25 662.55Q1236.28 662.9 1236.28 663.29L1236.28 667.68L1238.42 667.68L1238.42 662.49Q1238.42 661.74 1238.21 661.21Q1237.99 660.68 1237.62 660.34Q1237.24 660.02 1236.72 659.86Q1236.2 659.71 1235.58 659.71Q1234.77 659.71 1234.18 660.1Q1233.59 660.5 1233.24 661.01Q1232.93 660.29 1232.32 660Q1231.71 659.71 1230.97 659.71Q1230.21 659.71 1229.62 660.05Q1229.02 660.38 1228.61 660.97L1228.58 660.97L1228.58 659.93Z" fill="#FFFFFF"/><path d="M1244.01 666.29Q1243.5 666.29 1243.14 666.08Q1242.78 665.86 1242.56 665.53Q1242.34 665.19 1242.25 664.74Q1242.15 664.29 1242.15 663.83Q1242.15 663.34 1242.24 662.9Q1242.33 662.45 1242.55 662.1Q1242.76 661.76 1243.12 661.54Q1243.47 661.32 1243.99 661.32Q1244.5 661.32 1244.86 661.54Q1245.21 661.76 1245.44 662.11Q1245.66 662.46 1245.76 662.91Q1245.85 663.36 1245.85 663.83Q1245.85 664.29 1245.76 664.74Q1245.68 665.19 1245.46 665.53Q1245.24 665.86 1244.89 666.08Q1244.53 666.29 1244.01 666.29ZM1240.09 659.93L1240.09 670.4L1242.22 670.4L1242.22 666.72L1242.25 666.72Q1242.64 667.29 1243.25 667.58Q1243.86 667.88 1244.58 667.88Q1245.44 667.88 1246.07 667.55Q1246.71 667.21 1247.14 666.66Q1247.56 666.1 1247.77 665.39Q1247.98 664.67 1247.98 663.89Q1247.98 663.06 1247.77 662.3Q1247.56 661.55 1247.13 660.97Q1246.7 660.41 1246.03 660.06Q1245.37 659.71 1244.46 659.71Q1243.74 659.71 1243.14 660Q1242.54 660.29 1242.15 660.92L1242.12 660.92L1242.12 659.93Z" fill="#FFFFFF"/><path d="M1251.15 663.81Q1251.15 663.34 1251.24 662.9Q1251.33 662.45 1251.55 662.1Q1251.76 661.76 1252.12 661.54Q1252.48 661.32 1253.02 661.32Q1253.56 661.32 1253.93 661.54Q1254.3 661.76 1254.52 662.1Q1254.73 662.45 1254.82 662.9Q1254.91 663.34 1254.91 663.81Q1254.91 664.28 1254.82 664.72Q1254.73 665.16 1254.52 665.51Q1254.3 665.86 1253.93 666.08Q1253.56 666.29 1253.02 666.29Q1252.48 666.29 1252.12 666.08Q1251.76 665.86 1251.55 665.51Q1251.33 665.16 1251.24 664.72Q1251.15 664.28 1251.15 663.81ZM1249.02 663.81Q1249.02 664.74 1249.3 665.49Q1249.59 666.24 1250.11 666.77Q1250.64 667.31 1251.37 667.59Q1252.11 667.88 1253.02 667.88Q1253.94 667.88 1254.68 667.59Q1255.42 667.31 1255.95 666.77Q1256.47 666.24 1256.76 665.49Q1257.04 664.74 1257.04 663.81Q1257.04 662.88 1256.76 662.12Q1256.47 661.36 1255.95 660.83Q1255.42 660.3 1254.68 660.01Q1253.94 659.71 1253.02 659.71Q1252.11 659.71 1251.37 660.01Q1250.64 660.3 1250.11 660.83Q1249.59 661.36 1249.3 662.12Q1249.02 662.88 1249.02 663.81Z" fill="#FFFFFF"/><path d="M1258.42 659.93L1258.42 667.68L1260.55 667.68L1260.55 664.19Q1260.55 663.66 1260.66 663.21Q1260.76 662.76 1261.01 662.42Q1261.26 662.08 1261.66 661.89Q1262.07 661.7 1262.65 661.7Q1262.85 661.7 1263.06 661.72Q1263.27 661.74 1263.42 661.77L1263.42 659.79Q1263.16 659.71 1262.95 659.71Q1262.55 659.71 1262.17 659.83Q1261.8 659.96 1261.47 660.17Q1261.14 660.39 1260.88 660.7Q1260.63 661.01 1260.48 661.36L1260.45 661.36L1260.45 659.93Z" fill="#FFFFFF"/><path d="M1266.96 659.93L1266.96 657.6L1264.83 657.6L1264.83 659.93L1263.54 659.93L1263.54 661.35L1264.83 661.35L1264.83 665.93Q1264.83 666.51 1265.02 666.87Q1265.22 667.23 1265.56 667.43Q1265.89 667.62 1266.34 667.69Q1266.78 667.76 1267.27 667.76Q1267.59 667.76 1267.92 667.74Q1268.25 667.72 1268.52 667.68L1268.52 666.03Q1268.37 666.06 1268.21 666.08Q1268.04 666.09 1267.86 666.09Q1267.32 666.09 1267.14 665.91Q1266.96 665.73 1266.96 665.19L1266.96 661.35L1268.52 661.35L1268.52 659.93Z" fill="#FFFFFF"/></g>
  </g>

  
  <rect x="1066" y="286" width="358" height="458" rx="24" stroke="url(#accent)" stroke-width="8" opacity="0.85"/>

  
  <g transform="translate(1148 258)">
    <rect x="0" y="0" width="194" height="40" rx="20" fill="#FFFFFF" opacity="0.92"/>
    <rect x="0" y="0" width="194" height="40" rx="20" stroke="#E4E2FF"/>
    
    <g><path d="M29.43 16.72L29.43 26L31.47 26L31.47 16.72Z" fill="#3A2F9B"/><path d="M34.3 16.72L34.3 26L36.21 26L36.21 19.79L36.24 19.79L40.1 26L42.14 26L42.14 16.72L40.23 16.72L40.23 22.95L40.2 22.95L36.33 16.72Z" fill="#3A2F9B"/><path d="M51.97 22.41L53.18 19.01L53.2 19.01L54.37 22.41ZM52.16 16.72L48.65 26L50.71 26L51.43 23.93L54.91 23.93L55.61 26L57.73 26L54.26 16.72Z" fill="#3A2F9B"/><path d="M59.57 16.72L59.57 26L61.61 26L61.61 22.17L65.5 22.17L65.5 20.58L61.61 20.58L61.61 18.43L66.1 18.43L66.1 16.72Z" fill="#3A2F9B"/><path d="M70.38 18.43L70.38 26L72.42 26L72.42 18.43L75.2 18.43L75.2 16.72L67.59 16.72L67.59 18.43Z" fill="#3A2F9B"/><path d="M77.3 16.72L77.3 26L84.35 26L84.35 24.28L79.35 24.28L79.35 22.01L83.84 22.01L83.84 20.42L79.35 20.42L79.35 18.43L84.25 18.43L84.25 16.72Z" fill="#3A2F9B"/><path d="M88.81 20.92L88.81 18.3L91.05 18.3Q91.75 18.3 92.1 18.61Q92.45 18.92 92.45 19.59Q92.45 20.29 92.1 20.61Q91.75 20.92 91.05 20.92ZM86.77 16.72L86.77 26L88.81 26L88.81 22.37L90.85 22.37Q91.62 22.37 91.96 22.71Q92.29 23.05 92.4 23.78Q92.48 24.34 92.52 24.95Q92.55 25.56 92.72 26L94.76 26Q94.62 25.81 94.55 25.53Q94.48 25.25 94.45 24.93Q94.41 24.62 94.4 24.32Q94.39 24.02 94.37 23.8Q94.35 23.45 94.28 23.1Q94.21 22.75 94.05 22.46Q93.89 22.17 93.65 21.95Q93.4 21.74 93.02 21.63L93.02 21.61Q93.8 21.29 94.15 20.7Q94.49 20.1 94.49 19.28Q94.49 18.75 94.3 18.28Q94.11 17.82 93.76 17.47Q93.4 17.12 92.9 16.92Q92.4 16.72 91.77 16.72Z" fill="#3A2F9B"/><path d="M101.85 16.72L101.85 26L108.9 26L108.9 24.28L103.89 24.28L103.89 22.01L108.39 22.01L108.39 20.42L103.89 20.42L103.89 18.43L108.79 18.43L108.79 16.72Z" fill="#3A2F9B"/><path d="M111.31 16.72L111.31 26L113.35 26L113.35 22.17L117.24 22.17L117.24 20.58L113.35 20.58L113.35 18.43L117.84 18.43L117.84 16.72Z" fill="#3A2F9B"/><path d="M120.06 16.72L120.06 26L122.1 26L122.1 22.17L125.99 22.17L125.99 20.58L122.1 20.58L122.1 18.43L126.59 18.43L126.59 16.72Z" fill="#3A2F9B"/><path d="M128.81 16.72L128.81 26L135.86 26L135.86 24.28L130.85 24.28L130.85 22.01L135.35 22.01L135.35 20.42L130.85 20.42L130.85 18.43L135.75 18.43L135.75 16.72Z" fill="#3A2F9B"/><path d="M144.46 19.84L146.44 19.84Q146.35 19.03 146 18.41Q145.65 17.78 145.11 17.36Q144.57 16.94 143.88 16.72Q143.2 16.5 142.44 16.5Q141.37 16.5 140.52 16.87Q139.67 17.25 139.08 17.91Q138.5 18.58 138.18 19.47Q137.87 20.36 137.87 21.4Q137.87 22.41 138.18 23.29Q138.5 24.17 139.08 24.82Q139.67 25.47 140.52 25.84Q141.37 26.21 142.44 26.21Q143.29 26.21 144.01 25.95Q144.72 25.69 145.26 25.19Q145.79 24.7 146.11 24Q146.44 23.3 146.52 22.43L144.54 22.43Q144.42 23.36 143.9 23.93Q143.37 24.51 142.44 24.51Q141.75 24.51 141.27 24.24Q140.78 23.97 140.49 23.53Q140.19 23.09 140.05 22.54Q139.91 21.98 139.91 21.4Q139.91 20.79 140.05 20.22Q140.19 19.64 140.49 19.19Q140.78 18.75 141.27 18.48Q141.75 18.21 142.44 18.21Q142.81 18.21 143.16 18.34Q143.5 18.46 143.77 18.68Q144.05 18.9 144.23 19.19Q144.41 19.49 144.46 19.84Z" fill="#3A2F9B"/><path d="M151 18.43L151 26L153.04 26L153.04 18.43L155.83 18.43L155.83 16.72L148.22 16.72L148.22 18.43Z" fill="#3A2F9B"/><path d="M159.32 22.92L157.35 22.92Q157.33 23.78 157.66 24.4Q157.98 25.03 158.54 25.43Q159.09 25.83 159.81 26.02Q160.53 26.21 161.3 26.21Q162.25 26.21 162.97 25.99Q163.69 25.77 164.18 25.37Q164.67 24.97 164.91 24.43Q165.16 23.88 165.16 23.24Q165.16 22.46 164.83 21.96Q164.5 21.46 164.04 21.16Q163.59 20.87 163.12 20.73Q162.66 20.59 162.4 20.54Q161.53 20.32 160.99 20.18Q160.45 20.03 160.15 19.89Q159.84 19.75 159.74 19.58Q159.63 19.41 159.63 19.14Q159.63 18.84 159.76 18.64Q159.89 18.45 160.1 18.32Q160.3 18.19 160.54 18.14Q160.79 18.08 161.04 18.08Q161.42 18.08 161.73 18.15Q162.05 18.21 162.3 18.37Q162.55 18.52 162.7 18.8Q162.85 19.07 162.87 19.49L164.85 19.49Q164.85 18.68 164.54 18.12Q164.24 17.55 163.72 17.19Q163.2 16.82 162.53 16.66Q161.86 16.5 161.13 16.5Q160.51 16.5 159.88 16.67Q159.26 16.84 158.76 17.19Q158.27 17.54 157.96 18.06Q157.66 18.59 157.66 19.31Q157.66 19.94 157.9 20.39Q158.14 20.84 158.53 21.14Q158.92 21.44 159.41 21.63Q159.91 21.81 160.43 21.94Q160.93 22.09 161.43 22.2Q161.92 22.32 162.31 22.48Q162.7 22.63 162.94 22.87Q163.18 23.1 163.18 23.48Q163.18 23.83 163 24.06Q162.82 24.28 162.55 24.41Q162.27 24.54 161.96 24.59Q161.65 24.64 161.38 24.64Q160.97 24.64 160.6 24.54Q160.22 24.44 159.94 24.24Q159.66 24.04 159.49 23.71Q159.32 23.39 159.32 22.92Z" fill="#3A2F9B"/></g>
  </g>
</svg>