<svg xmlns="http://www.w3.org/2000/svg" width="1221.00" height="668.00" viewBox="225.00 195.00 1221.00 668.00" fill="none">
  <defs>
    <linearGradient id="accent" x1="0" y1="0" x2="1" y2="1">
      <stop stop-color="#6B5CFF" />
      <stop offset="1" stop-color="#5454D2" />
    </linearGradient>
    <linearGradient id="aeWin" x1="0" y1="0" x2="0" y2="1">
      <stop stop-color="#F7F8FC" />
      <stop offset="1" stop-color="#E9ECF6" />
    </linearGradient>
    
    <style>
      /* Explicit stacks so IDE preview and outline export agree on metrics */
      .t-ui{font: 700 15px "Helvetica Neue", Helvetica, Arial, sans-serif;}
      .t-ui-sm{font: 600 13px "Helvetica Neue", Helvetica, Arial, sans-serif;}
      .t-ui2{font: 600 14px "Helvetica Neue", Helvetica, Arial, sans-serif; opacity:.9}
      .t-pill{font: 700 13px "Helvetica Neue", Helvetica, Arial, sans-serif; letter-spacing:.08em; text-transform: uppercase;}
    </style>
  </defs>

  
  <g>
    <rect x="240" y="210" width="1120" height="600" rx="26" fill="url(#aeWin)" stroke="#D7DBE8" stroke-width="2" />
    
    <rect x="240" y="210" width="1120" height="52" rx="26" fill="#F3F4F6" />
    <circle cx="278" cy="236" r="7" fill="#FF6B81" opacity="0.85" />
    <circle cx="302" cy="236" r="7" fill="#FFD66B" opacity="0.85" />
    <circle cx="326" cy="236" r="7" fill="#7CFF8A" opacity="0.8" />
    <rect x="372" y="224" width="240" height="24" rx="12" fill="#F7F8FC" opacity="0.75" />
    <text x="388" y="242" class="t-ui2" fill="#111827">After Effects</text>
  </g>

  
  <g opacity="0.95">
    <rect x="270" y="286" width="320" height="494" rx="16" fill="#F7F8FC" stroke="#D7DBE8" />
    
    <rect x="292" y="310" width="276" height="168" rx="14" fill="#FFFFFF" stroke="#D7DBE8" />
    <rect x="316" y="336" width="76" height="44" rx="10" fill="#D1D5DB" />
    <rect x="410" y="336" width="136" height="12" rx="6" fill="#D1D5DB" />
    <rect x="410" y="360" width="110" height="12" rx="6" fill="#D1D5DB" opacity="0.8" />
    <rect x="316" y="398" width="230" height="10" rx="5" fill="#CBD5E1" opacity="0.55" />
    <rect x="316" y="418" width="160" height="10" rx="5" fill="#CBD5E1" opacity="0.45" />

    
    <text x="292" y="520" class="t-ui2" fill="#111827">Layers</text>
    <g opacity="0.9">
      <rect x="292" y="536" width="276" height="12" rx="6" fill="#D1D5DB" />
      <rect x="292" y="556" width="240" height="12" rx="6" fill="#D1D5DB" opacity="0.85" />
      <rect x="292" y="576" width="262" height="12" rx="6" fill="#D1D5DB" opacity="0.75" />
      <rect x="292" y="604" width="252" height="12" rx="6" fill="#D1D5DB" opacity="0.7" />
      <rect x="292" y="626" width="276" height="12" rx="6" fill="#D1D5DB" opacity="0.62" />
      <rect x="292" y="648" width="220" height="12" rx="6" fill="#D1D5DB" opacity="0.55" />
      <rect x="292" y="670" width="246" height="12" rx="6" fill="#D1D5DB" opacity="0.48" />
      <rect x="292" y="692" width="276" height="12" rx="6" fill="#D1D5DB" opacity="0.42" />
      <rect x="292" y="716" width="210" height="10" rx="5" fill="#61D2B4" opacity="0.30" />
      <rect x="292" y="734" width="170" height="10" rx="5" fill="#7B6CF5" opacity="0.26" />
    </g>
  </g>

  
  <g opacity="0.95">
    <rect x="612" y="286" width="470" height="494" rx="18" fill="#F4F6FB" stroke="#D7DBE8" />
    <rect x="644" y="320" width="406" height="340" rx="16" fill="#FFFFFF" stroke="#D7DBE8" />
    <g opacity="0.98">
      <!-- Selection frame: tight vertical padding vs 20px CJK (matches browser mock) -->
      <rect x="689" y="371" width="154" height="30" rx="7" fill="none" stroke="#7B6CF5" stroke-width="2.5" opacity="0.85" />
      <rect x="685" y="367" width="10" height="10" rx="2" fill="#FFFFFF" stroke="#7B6CF5" stroke-width="2" />
      <rect x="837" y="367" width="10" height="10" rx="2" fill="#FFFFFF" stroke="#7B6CF5" stroke-width="2" />
      <rect x="685" y="395" width="10" height="10" rx="2" fill="#FFFFFF" stroke="#7B6CF5" stroke-width="2" />
      <rect x="837" y="395" width="10" height="10" rx="2" fill="#FFFFFF" stroke="#7B6CF5" stroke-width="2" />

      <text x="766" y="386" text-anchor="middle" fill="#374151" opacity="0.9" dominant-baseline="central"
            style="font: 700 20px &quot;Hiragino Sans GB&quot;, &quot;PingFang SC&quot;, &quot;Noto Sans SC&quot;, sans-serif;">&#x793A;&#x4F8B;&#x6E90;&#x5B57;&#x7B26;&#x4E32;</text>
    </g>
    <rect x="684" y="416" width="300" height="18" rx="9" fill="#D1D5DB" opacity="0.85" />
    <rect x="684" y="446" width="260" height="18" rx="9" fill="#D1D5DB" opacity="0.7" />
    <!-- Cursor pointer (on top of gray lines) -->
    <g transform="translate(822 414) scale(0.62)" opacity="0.95">
      <path d="M0 0 L0 30 L8 22 L13 35 L18 33 L13 20 L24 20 Z" fill="#3B2F9B" opacity="0.25" transform="translate(1.5 1.5)"/>
      <path d="M0 0 L0 30 L8 22 L13 35 L18 33 L13 20 L24 20 Z" fill="#7B6CF5"/>
    </g>
    <rect x="684" y="496" width="320" height="10" rx="5" fill="#CBD5E1" opacity="0.5" />
    <rect x="684" y="516" width="280" height="10" rx="5" fill="#CBD5E1" opacity="0.42" />
    <rect x="684" y="536" width="300" height="10" rx="5" fill="#CBD5E1" opacity="0.35" />

    
    <rect x="847" y="642" width="2" height="134" fill="#7B6CF5" opacity="0.60" />

    
    <text x="644" y="680" class="t-ui2" fill="#111827" opacity="0.85">Timeline</text>
    <rect x="644" y="690" width="406" height="26" rx="13" fill="#F7F8FC" stroke="#D7DBE8" />
    <g opacity="0.45">
      <rect x="670" y="700" width="1.5" height="6" fill="#374151" />
      <rect x="710" y="700" width="1.5" height="6" fill="#374151" />
      <rect x="750" y="700" width="1.5" height="6" fill="#374151" />
      <rect x="790" y="700" width="1.5" height="6" fill="#374151" />
      <rect x="830" y="700" width="1.5" height="6" fill="#374151" />
      <rect x="870" y="700" width="1.5" height="6" fill="#374151" />
      <rect x="910" y="700" width="1.5" height="6" fill="#374151" />
      <rect x="950" y="700" width="1.5" height="6" fill="#374151" />
      <rect x="990" y="700" width="1.5" height="6" fill="#374151" />
      <rect x="1030" y="700" width="1.5" height="6" fill="#374151" />
    </g>
    <rect x="674" y="732" width="260" height="14" rx="7" fill="#61D2B4" opacity="0.40" />
    <rect x="674" y="754" width="330" height="14" rx="7" fill="#7B6CF5" opacity="0.32" />
    <rect x="674" y="766" width="210" height="14" rx="7" fill="#374151" opacity="0.22" />
  </g>

  
  
  <g>
    <rect x="1080" y="300" width="330" height="430" rx="18" fill="#FFFFFF" stroke="#D7DBE8" stroke-width="2" />
    <rect x="1080" y="300" width="330" height="52" rx="18" fill="#F3F4F6" />

    <text x="1106" y="334" class="t-ui2" fill="#111827">Cult Connector (AE &#8596; Crowdin)</text>

    
    <g opacity="0.85">
      <rect x="1370" y="322" width="16" height="2.6" rx="1.3" fill="#64748B" />
      <rect x="1370" y="330" width="16" height="2.6" rx="1.3" fill="#64748B" />
      <rect x="1370" y="338" width="16" height="2.6" rx="1.3" fill="#64748B" />
    </g>

    
    <text x="1106" y="382" class="t-ui" fill="#111827">Composition</text>
    <text x="1240" y="382" class="t-ui" fill="#374151" opacity="0.9">Settings</text>
    <rect x="1106" y="392" width="110" height="3" rx="1.5" fill="#111827" opacity="0.9" />

    
    <rect x="1366" y="404" width="34" height="34" rx="9" fill="#EEF2FF" stroke="#2E2E39" />
    <path d="M1383 414l-6 10h12l-6-10z" fill="#64748B" opacity="0.85" />

    
    <text x="1245" y="458" text-anchor="middle" class="t-ui2" fill="#111827" opacity="0.95">After Effects &#8594; Crowdin</text>
    <rect x="1110" y="484" width="270" height="54" rx="12" fill="#FFFFFF" stroke="#3A3A49" />
    
    <text x="1245" y="511" text-anchor="middle" dominant-baseline="middle" class="t-ui-sm" fill="#111827">Send</text>

    <rect x="1110" y="560" width="270" height="2" rx="1" fill="#D7DBE8" opacity="0.8" />

    <text x="1245" y="610" text-anchor="middle" class="t-ui2" fill="#111827" opacity="0.95">Crowdin &#8594; After Effects</text>
    <rect x="1110" y="636" width="270" height="54" rx="12" fill="url(#accent)" stroke="#4840C8" stroke-width="1" />
    <text x="1245" y="663" text-anchor="middle" dominant-baseline="middle" class="t-ui" fill="#FFFFFF">Import</text>
  </g>

  
  <rect x="1066" y="286" width="358" height="458" rx="24" stroke="url(#accent)" stroke-width="8" opacity="0.85" />

  
  <g transform="translate(1148 258)">
    <rect x="0" y="0" width="194" height="40" rx="20" fill="#FFFFFF" opacity="0.92" />
    <rect x="0" y="0" width="194" height="40" rx="20" stroke="#E4E2FF" />
    
    <text x="97" y="26" text-anchor="middle" class="t-pill" fill="#3A2F9B">In After Effects</text>
  </g>
</svg>
